<svg xmlns="http://www.w3.org/2000/svg" viewBox="0 0 512 512" width="512" height="512" preserveAspectRatio="xMidYMid meet" style="width: 100%; height: 100%; transform: translate3d(0px, 0px, 0px);"><defs><clipPath id="__lottie_element_2"><rect width="512" height="512" x="0" y="0"/></clipPath><clipPath id="__lottie_element_4"><path d="M0,0 L512,0 L512,512 L0,512z"/></clipPath><clipPath id="__lottie_element_11"><path d="M0,0 L512,0 L512,512 L0,512z"/></clipPath><clipPath id="__lottie_element_12"><path fill="#ffffff" clip-rule="nonzero" d=" M117.25,300.25 C98.88899993896484,303.2869873046875 84.302001953125,305.7120056152344 66.5,320.25 C51.499996185302734,332.5 51.249996185302734,354.75 68.5,363.75 C82.58099365234375,371.0970153808594 97.74999237060547,372.5 110.49999237060547,375.25 C120.95999145507812,377.5060119628906 123.42498779296875,384.552001953125 120.24999237060547,390.75 C109.74999237060547,411.25 129.5279998779297,426.4429931640625 180,431.25 C243,437.25 277.75,434.25 286.25,418.75 C290.7669982910156,410.51300048828125 285,408 302.5,402.75 C314.3479919433594,399.1960144042969 353.9830017089844,400.9750061035156 366,401.75 C381.5,402.75 407,400 413.5,394.5 C420,389 422,381.5 415.25,368.75 C410.56500244140625,359.9010009765625 413.25,358.75 423.25,355.25 C433.25,351.75 440.5,347 439,335.5 C437.5,324 411.35101318359375,315.1520080566406 392.5,310.5 C315.5,291.5 183.75,289.25 117.25,300.25" fill-opacity="1"/></clipPath><clipPath id="__lottie_element_69"><path d="M0,0 L512,0 L512,512 L0,512z"/></clipPath><clipPath id="__lottie_element_76"><path d="M0,0 L512,0 L512,512 L0,512z"/></clipPath><clipPath id="__lottie_element_77"><path fill="#ffffff" clip-rule="nonzero" d=" M117.25,300.25 C98.88899993896484,303.2869873046875 84.47657775878906,306.4227294921875 66.25342559814453,320.3486328125 C50.85890579223633,332.10546875 50.41164779663086,355.4403991699219 67.66165161132812,364.4403991699219 C81.74264526367188,371.78741455078125 96.41850280761719,373.2890319824219 109.16850280761719,376.0390319824219 C119.62850189208984,378.2950439453125 121.35377502441406,385.4889831542969 118.17877960205078,391.6869812011719 C107.67877960205078,412.1869812011719 129.4293670654297,426.8868408203125 179.9013671875,431.69384765625 C242.9013671875,437.69384765625 279.91986083984375,434.8417663574219 288.07464599609375,419.09521484375 C292.3932189941406,410.7643127441406 286.3808288574219,408.5917663574219 303.8808288574219,403.3417663574219 C315.72882080078125,399.78778076171875 353.9830017089844,401.6654052734375 366,402.4403991699219 C381.5,403.4403991699219 407.8383483886719,401.0356140136719 414.3383483886719,395.5356140136719 C420.8383483886719,390.0356140136719 422.9217834472656,383.4483337402344 416.92669677734375,370.42669677734375 C412.8699645996094,361.89312744140625 414.77874755859375,358.75 424.77874755859375,355.25 C434.77874755859375,351.75 442.37396240234375,347.14794921875 440.87396240234375,335.64794921875 C439.37396240234375,324.14794921875 412.3173828125,314.8754577636719 392.697265625,310.4013671875 C315.44989013671875,292.6048583984375 183.75,289.25 117.25,300.25" fill-opacity="1"/></clipPath></defs><g clip-path="url(#__lottie_element_2)"><g clip-path="url(#__lottie_element_4)" transform="matrix(1,0,0,1,0,0)" opacity="1" style="display: none;"><g transform="matrix(1.0299999713897705,0,0,1.0299999713897705,6.132049560546875,24.05999755859375)" opacity="1" style="display: block;"><g opacity="1" transform="matrix(1,0,0,1,228.9320068359375,364.6669921875)"><path fill="rgb(100,211,255)" fill-opacity="1" d=" M-23.659000396728516,-66.49199676513672 C-23.659000396728516,-66.49199676513672 -189.44900512695312,-78.85899353027344 -189.57200622558594,-22.93299674987793 C-189.66500854492188,19.338003158569336 -106.85100555419922,-7.79299783706665 -127.4850082397461,30.816001892089844 C-147.25401306152344,67.80500030517578 36.44700622558594,81.427001953125 36.44700622558594,50.64200210571289 C36.44700622558594,10.468001365661621 190.82400512695312,62.64200210571289 166.01699829101562,7.338003635406494 C166.01699829101562,7.338003635406494 156.87100219726562,-8.406000137329102 172.0390167236328,-11.445000648498535 C195.47201538085938,-16.141000747680664 236.68899536132812,-62.553001403808594 -23.659000396728516,-66.49199676513672z"/><path stroke-linecap="round" stroke-linejoin="round" fill-opacity="0" stroke="rgb(41,122,183)" stroke-opacity="1" stroke-width="6" d=" M-23.659000396728516,-66.49199676513672 C-23.659000396728516,-66.49199676513672 -189.44900512695312,-78.85899353027344 -189.57200622558594,-22.93299674987793 C-189.66500854492188,19.338003158569336 -106.85100555419922,-7.79299783706665 -127.4850082397461,30.816001892089844 C-147.25401306152344,67.80500030517578 36.44700622558594,81.427001953125 36.44700622558594,50.64200210571289 C36.44700622558594,10.468001365661621 190.82400512695312,62.64200210571289 166.01699829101562,7.338003635406494 C166.01699829101562,7.338003635406494 156.87100219726562,-8.406000137329102 172.0390167236328,-11.445000648498535 C195.47201538085938,-16.141000747680664 236.68899536132812,-62.553001403808594 -23.659000396728516,-66.49199676513672z"/></g><g opacity="1" transform="matrix(1,0,0,1,234.30299377441406,341.1789855957031)"><path fill="rgb(42,174,232)" fill-opacity="1" d=" M-123.95600128173828,-7.993000030517578 C-122.83899688720703,-25.31800079345703 -66.43599700927734,-35.784000396728516 2.0230000019073486,-31.3700008392334 C70.48200225830078,-26.95599937438965 125.072998046875,-9.331999778747559 123.95600128173828,7.993000030517578 C122.83899688720703,25.31800079345703 66.43599700927734,35.784000396728516 -2.0230000019073486,31.3700008392334 C-70.48200225830078,26.95599937438965 -125.072998046875,9.331999778747559 -123.95600128173828,-7.993000030517578z"/></g><g opacity="1" transform="matrix(1,0,0,1,354.1969909667969,324.67498779296875)"><path fill="rgb(197,247,255)" fill-opacity="1" d=" M-61.27199935913086,-20.038999557495117 C-61.27199935913086,-20.038999557495117 25.233003616333008,-14.859001159667969 52.79300308227539,2.655998706817627 C52.79300308227539,2.655998706817627 68.19600677490234,11.560998916625977 57.48100662231445,20.038999557495117 C57.48100662231445,20.038999557495117 59.7710075378418,11.329999923706055 34.20600891113281,2.200000286102295 C24.779006958007812,-1.1669995784759521 -21.75,-16.517000198364258 -61.27199935913086,-20.038999557495117z"/></g><g opacity="1" transform="matrix(1,0,0,1,365.54998779296875,383.0889892578125)"><path fill="rgb(197,247,255)" fill-opacity="1" d=" M24.94100570678711,-13.69299602508545 C24.94100570678711,-13.69299602508545 36.30300521850586,2.475003480911255 22.563005447387695,8.941003799438477 C22.563005447387695,8.941003799438477 11.599013328552246,15.787003517150879 -29.17298698425293,13.045002937316895 C-29.406986236572266,13.029003143310547 -29.4169864654541,12.687003135681152 -29.18398666381836,12.66800308227539 C-19.268985748291016,11.87600326538086 16.418004989624023,8.772003173828125 21.289005279541016,3.8180036544799805 C27.061004638671875,-2.0519964694976807 24.94100570678711,-13.69299602508545 24.94100570678711,-13.69299602508545z"/></g><g opacity="1" transform="matrix(1,0,0,1,107.70500183105469,369.5840148925781)"><path fill="rgb(42,174,232)" fill-opacity="1" d=" M-35.513999938964844,-57.72600173950195 C-35.513999938964844,-57.72600173950195 -60.78000259399414,-43.75299835205078 -55.0410041809082,-26.01399803161621 C-49.302001953125,-8.274996757507324 6.494994640350342,-13.47099781036377 7.611994743347168,8.03000259399414 C8.546995162963867,26.03000259399414 -15.649007797241211,42.07400131225586 65.48099517822266,57.72600173950195 C65.48099517822266,57.72600173950195 -16.347007751464844,49.000003814697266 -3.649007558822632,26.6820011138916 C9.263992309570312,3.986001968383789 -17.736003875732422,-0.1869984120130539 -17.736003875732422,-0.1869984120130539 C-17.736003875732422,-0.1869984120130539 -62.86600112915039,-3.2109971046447754 -65.21400451660156,-23.404996871948242 C-66.4010009765625,-33.61099624633789 -64.7959976196289,-47.05099868774414 -35.513999938964844,-57.72600173950195z"/></g></g><g clip-path="url(#__lottie_element_11)" transform="matrix(1.0299999713897705,0,0,1.0299999713897705,-13.437950134277344,24.05999755859375)" opacity="1" style="display: block;"><g clip-path="url(#__lottie_element_12)"><g style="display: block;" transform="matrix(2.239999771118164,0,0,2.239999771118164,-264.8756103515625,-380.18701171875)" opacity="1"><g opacity="1" transform="matrix(1,0,0,1,232.78900146484375,364.6669921875)"><path fill="rgb(197,247,255)" fill-opacity="1" d=" M-127.83999633789062,-24.204999923706055 C-128.2480010986328,-24.839000701904297 -129.26400756835938,-24.49799919128418 -129.30999755859375,-23.7450008392334 C-129.80099487304688,-15.755000114440918 -124.03099822998047,14.008999824523926 -13.604000091552734,22.788999557495117 C93.96900177001953,31.341999053955078 122.72000122070312,6.15500020980835 129.1510009765625,-2.0869998931884766 C129.68600463867188,-2.7730000019073486 128.9600067138672,-3.7179999351501465 128.16600036621094,-3.36299991607666 C116.83000183105469,1.7079999446868896 75.4209976196289,24.53700065612793 -13.213000297546387,14.571999549865723 C-13.213000297546387,14.571999549865723 -107.1259994506836,8.026000022888184 -127.83999633789062,-24.204999923706055z"/></g></g></g></g><g transform="matrix(1.029770851135254,0.0007986847776919603,-0.0007990397862158716,1.0302284955978394,6.46291446685791,23.795928955078125)" opacity="1" style="display: block;"><g opacity="1" transform="matrix(1,0,0,1,234.86599731445312,341.6600036621094)"><path fill="rgb(255,202,230)" fill-opacity="1" d=" M112.79047393798828,6.6128644943237305 C111.91747283935547,19.549863815307617 59.74482345581055,27.749711990356445 -2.505000114440918,23.586999893188477 C-64.7410659790039,19.42340850830078 -113.67278289794922,3.6647558212280273 -112.7997817993164,-9.272244453430176 C-111.92678833007812,-22.209243774414062 -61.58000183105469,-27.46299934387207 0.656000018119812,-23.26300048828125 C62.891998291015625,-19.062999725341797 113.6634750366211,-6.3241353034973145 112.79047393798828,6.6128644943237305z"/></g><g opacity="1" transform="matrix(1,0,0,1,239.06700134277344,260.9049987792969)"><path fill="rgb(255,202,230)" fill-opacity="1" d=" M-117.00078582763672,71.48175811767578 C-117.00078582763672,71.48175811767578 -116.74199676513672,53.70800018310547 -115.40599822998047,23.948999404907227 C-115.40599822998047,23.948999404907227 -111.98500061035156,-34.637001037597656 -101.94000244140625,-64.83799743652344 C-91.8949966430664,-95.03900146484375 134.13900756835938,-109.24099731445312 115.94400024414062,-15.552000045776367 C115.94400024414062,-15.552000045776367 97.64286804199219,47.91188049316406 108.64886474609375,87.56388092041016"/><path stroke-linecap="round" stroke-linejoin="round" fill-opacity="0" stroke="rgb(201,87,133)" stroke-opacity="1" stroke-width="6" d=" M-117.00078582763672,71.48175811767578 C-117.00078582763672,71.48175811767578 -116.74199676513672,53.70800018310547 -115.40599822998047,23.948999404907227 C-115.40599822998047,23.948999404907227 -111.98500061035156,-34.637001037597656 -101.94000244140625,-64.83799743652344 C-91.8949966430664,-95.03900146484375 134.13900756835938,-109.24099731445312 115.94400024414062,-15.552000045776367 C115.94400024414062,-15.552000045776367 97.64286804199219,47.91188049316406 108.64886474609375,87.56388092041016"/></g></g><g transform="matrix(1.029770851135254,0.0007986847776919603,-0.0007990397862158716,1.0302284955978394,6.46291446685791,23.795928955078125)" opacity="1" style="display: block;"><g opacity="1" transform="matrix(1,0,0,1,254.92100524902344,177.32699584960938)"><path fill="rgb(255,202,230)" fill-opacity="1" d=" M-124.28199768066406,48.459999084472656 C-191.5019989013672,33.95000076293945 -187.8719940185547,20.200000762939453 -175.64199829101562,-22.979999542236328 C-163.56199645996094,-65.62999725341797 -110.36199951171875,-95.16999816894531 11.23799991607666,-79.19999694824219 C132.83799743652344,-63.22999954223633 199.03799438476562,-11.529999732971191 179.23800659179688,43.5 C165.70799255371094,81.0999984741211 120.15799713134766,84.62999725341797 96.65799713134766,83.4000015258789"/><path stroke-linecap="round" stroke-linejoin="round" fill-opacity="0" stroke="rgb(201,87,133)" stroke-opacity="1" stroke-width="6" d=" M-124.28199768066406,48.459999084472656 C-191.5019989013672,33.95000076293945 -187.8719940185547,20.200000762939453 -175.64199829101562,-22.979999542236328 C-163.56199645996094,-65.62999725341797 -110.36199951171875,-95.16999816894531 11.23799991607666,-79.19999694824219 C132.83799743652344,-63.22999954223633 199.03799438476562,-11.529999732971191 179.23800659179688,43.5 C165.70799255371094,81.0999984741211 120.15799713134766,84.62999725341797 96.65799713134766,83.4000015258789"/></g><g opacity="1" transform="matrix(1,0,0,1,242.2530059814453,180.58799743652344)"><path fill="rgb(255,255,255)" fill-opacity="1" d=" M62.67499923706055,-48.42100143432617 C-21.024999618530273,-71.84100341796875 -140.68499755859375,-73.41100311279297 -148.375,-14.380999565124512 C-153.27499389648438,23.179000854492188 -102.96600341796875,35.38800048828125 -84.32499694824219,39.8489990234375 C-46.04399871826172,49.0099983215332 37.448001861572266,63.558998107910156 88.17500305175781,63.558998107910156 C104.06500244140625,63.558998107910156 149.19500732421875,56.39899826049805 148.7050018310547,13.229000091552734 C148.44500732421875,-9.630999565124512 116.16500091552734,-33.46099853515625 62.67499923706055,-48.42100143432617z"/></g></g><g transform="matrix(1.029770851135254,0.0007986847776919603,-0.0007990397862158716,1.0302284955978394,256.5689697265625,315.5179443359375)" opacity="1" style="display: block;"><g opacity="1" transform="matrix(1,0,0,1,0,0)"><path fill="rgb(255,255,255)" fill-opacity="1" d=" M9.291999816894531,-81.7969970703125 C-77.78399658203125,-89.68800354003906 -103.99700164794922,-66.11699676513672 -85.16699981689453,-62.5369987487793 C-81.40699768066406,-61.82699966430664 -78.88200378417969,-58.854000091552734 -80.18699645996094,-52.08700180053711 C-87.4469985961914,-14.256999969482422 -90.4986343383789,52.6777229309082 -89.25863647460938,69.22772216796875 C-89.25863647460938,69.22772216796875 -66.8610610961914,75.6160659790039 -41.02906036376953,79.35640716552734 C-13.057785034179688,83.40540313720703 15.511266708374023,83.38645935058594 27.390836715698242,83.37970733642578 C53.24475860595703,83.36182403564453 71.30259704589844,79.98439025878906 71.30259704589844,79.98439025878906 C73.35260009765625,40.60438919067383 75.19300079345703,-3.8469998836517334 79.23300170898438,-26.87700080871582 C80.2490005493164,-34.332000732421875 82.59600067138672,-38.766998291015625 87.33300018310547,-38.82699966430664 C103.22200012207031,-39.02799987792969 64.60800170898438,-76.78399658203125 9.291999816894531,-81.7969970703125z"/></g></g><g transform="matrix(0.9470071792602539,0.3868228793144226,-0.38102492690086365,0.9645392298698425,85.09310913085938,-21.70703125)" opacity="0.0164599999999524" style="display: none;"><g opacity="1" transform="matrix(1,0,0,1,249.3730010986328,156.3090057373047)"><path fill="rgb(150,47,108)" fill-opacity="1" d=" M-42.42399978637695,-6.9730000495910645 C-42.42399978637695,-6.9730000495910645 -22.21299934387207,8.140000343322754 1.0950000286102295,4.239999771118164 C17.506000518798828,1.49399995803833 38.47999954223633,-24.62700080871582 39.32099914550781,-30.17799949645996 C37.91600036621094,-27.091999053955078 33.92499923706055,-16.336999893188477 22.0939998626709,-7.163000106811523 C-10.564000129699707,18.15999984741211 -32.05799865722656,0.16099999845027924 -50.731998443603516,-17.90399932861328 C-50.731998443603516,-17.90399932861328 -49.88399887084961,-15.503000259399414 -42.42399978637695,-6.9730000495910645z"/></g><g opacity="1" transform="matrix(1,0,0,1,218.44900512695312,190.25599670410156)"><path fill="rgb(255,255,255)" fill-opacity="1" d=" M-17.084999084472656,-47.02199935913086 C-17.084999084472656,-47.02199935913086 -15.017000198364258,-47.172000885009766 -9.053000450134277,-41.422000885009766 C-3.0889999866485596,-35.672000885009766 7.367000102996826,-29.231000900268555 7.367000102996826,-29.231000900268555 C7.367000102996826,-29.231000900268555 -8.756999969482422,-36.4630012512207 -17.084999084472656,-47.02199935913086z"/><path stroke-linecap="round" stroke-linejoin="round" fill-opacity="0" stroke="rgb(215,216,216)" stroke-opacity="1" stroke-width="7.087" d=" M-17.084999084472656,-47.02199935913086 C-17.084999084472656,-47.02199935913086 -15.017000198364258,-47.172000885009766 -9.053000450134277,-41.422000885009766 C-3.0889999866485596,-35.672000885009766 7.367000102996826,-29.231000900268555 7.367000102996826,-29.231000900268555 C7.367000102996826,-29.231000900268555 -8.756999969482422,-36.4630012512207 -17.084999084472656,-47.02199935913086z"/></g><g opacity="1" transform="matrix(1,0,0,1,254.302001953125,191.72300720214844)"><path fill="rgb(255,255,255)" fill-opacity="1" d=" M11.204000473022461,-36.84400177001953 C11.204000473022461,-36.84400177001953 1.5740000009536743,-32.361000061035156 -7.303999900817871,-30.284000396728516 C-17.437999725341797,-27.913000106811523 -24.701000213623047,-29.948999404907227 -24.701000213623047,-29.948999404907227 C-24.701000213623047,-29.948999404907227 -1.9299999475479126,-30.625 11.204000473022461,-36.84400177001953z"/><path stroke-linecap="round" stroke-linejoin="round" fill-opacity="0" stroke="rgb(215,216,216)" stroke-opacity="1" stroke-width="7.087" d=" M11.204000473022461,-36.84400177001953 C11.204000473022461,-36.84400177001953 1.5740000009536743,-32.361000061035156 -7.303999900817871,-30.284000396728516 C-17.437999725341797,-27.913000106811523 -24.701000213623047,-29.948999404907227 -24.701000213623047,-29.948999404907227 C-24.701000213623047,-29.948999404907227 -1.9299999475479126,-30.625 11.204000473022461,-36.84400177001953z"/></g><g opacity="1" transform="matrix(1,0,0,1,289.322998046875,183.73300170898438)"><path fill="rgb(255,255,255)" fill-opacity="1" d=" M-0.2370000034570694,-55.85200119018555 C-0.2370000034570694,-55.85200119018555 -1.8300000429153442,-49.96799850463867 -7.829999923706055,-44.21799850463867 C-13.829999923706055,-38.46799850463867 -20.7450008392334,-30.96500015258789 -20.7450008392334,-30.96500015258789 C-20.7450008392334,-30.96500015258789 -10.581999778747559,-39.917999267578125 -0.2370000034570694,-55.85200119018555z"/><path stroke-linecap="round" stroke-linejoin="round" fill-opacity="0" stroke="rgb(215,216,216)" stroke-opacity="1" stroke-width="7.087" d=" M-0.2370000034570694,-55.85200119018555 C-0.2370000034570694,-55.85200119018555 -1.8300000429153442,-49.96799850463867 -7.829999923706055,-44.21799850463867 C-13.829999923706055,-38.46799850463867 -20.7450008392334,-30.96500015258789 -20.7450008392334,-30.96500015258789 C-20.7450008392334,-30.96500015258789 -10.581999778747559,-39.917999267578125 -0.2370000034570694,-55.85200119018555z"/></g><g opacity="1" transform="matrix(1,0,0,1,195.4239959716797,139.69400024414062)"><path fill="rgb(255,255,255)" fill-opacity="1" d=" M2.9809999465942383,-0.28299999237060547 C2.9809999465942383,-0.28299999237060547 6.978000164031982,1.5980000495910645 10.579999923706055,6.508999824523926 C13.630999565124512,10.670000076293945 16.684999465942383,13.871000289916992 16.684999465942383,13.871000289916992 C16.684999465942383,13.871000289916992 8.366999626159668,3.7860000133514404 2.9809999465942383,-0.28299999237060547z"/><path stroke-linecap="round" stroke-linejoin="round" fill-opacity="0" stroke="rgb(215,216,216)" stroke-opacity="1" stroke-width="7.087" d=" M2.9809999465942383,-0.28299999237060547 C2.9809999465942383,-0.28299999237060547 6.978000164031982,1.5980000495910645 10.579999923706055,6.508999824523926 C13.630999565124512,10.670000076293945 16.684999465942383,13.871000289916992 16.684999465942383,13.871000289916992 C16.684999465942383,13.871000289916992 8.366999626159668,3.7860000133514404 2.9809999465942383,-0.28299999237060547z"/></g><g opacity="1" transform="matrix(1,0,0,1,222.48500061035156,138.65499877929688)"><path fill="rgb(255,255,255)" fill-opacity="1" d=" M-9.440999984741211,13.402999877929688 C-10.711999893188477,15.50100040435791 0.4959999918937683,22.233999252319336 9.998000144958496,21.69700050354004 C9.998000144958496,21.69700050354004 11.14900016784668,22.440000534057617 13.640000343322754,22.55500030517578 C16.131000518798828,22.670000076293945 17.361000061035156,18.9060001373291 8.204000473022461,20.964000701904297 C-0.953000009059906,23.02199935913086 -8.234000205993652,11.40999984741211 -9.440999984741211,13.402999877929688z"/><path stroke-linecap="round" stroke-linejoin="round" fill-opacity="0" stroke="rgb(215,216,216)" stroke-opacity="1" stroke-width="7.087" d=" M-9.440999984741211,13.402999877929688 C-10.711999893188477,15.50100040435791 0.4959999918937683,22.233999252319336 9.998000144958496,21.69700050354004 C9.998000144958496,21.69700050354004 11.14900016784668,22.440000534057617 13.640000343322754,22.55500030517578 C16.131000518798828,22.670000076293945 17.361000061035156,18.9060001373291 8.204000473022461,20.964000701904297 C-0.953000009059906,23.02199935913086 -8.234000205993652,11.40999984741211 -9.440999984741211,13.402999877929688z"/></g><g opacity="1" transform="matrix(1,0,0,1,258.5039978027344,132.822998046875)"><path fill="rgb(255,255,255)" fill-opacity="1" d=" M20.18199920654297,11.319000244140625 C20.18199920654297,11.319000244140625 10.97599983215332,18.67099952697754 7.421999931335449,21.398000717163086 C3.114000082015991,24.702999114990234 -7.589000225067139,28.059999465942383 -7.589000225067139,28.059999465942383 C-7.589000225067139,28.059999465942383 3.187000036239624,24.496000289916992 8.038000106811523,20.687999725341797 C12.888999938964844,16.8799991607666 20.18199920654297,11.319000244140625 20.18199920654297,11.319000244140625z"/><path stroke-linecap="round" stroke-linejoin="round" fill-opacity="0" stroke="rgb(215,216,216)" stroke-opacity="1" stroke-width="7.087" d=" M20.18199920654297,11.319000244140625 C20.18199920654297,11.319000244140625 10.97599983215332,18.67099952697754 7.421999931335449,21.398000717163086 C3.114000082015991,24.702999114990234 -7.589000225067139,28.059999465942383 -7.589000225067139,28.059999465942383 C-7.589000225067139,28.059999465942383 3.187000036239624,24.496000289916992 8.038000106811523,20.687999725341797 C12.888999938964844,16.8799991607666 20.18199920654297,11.319000244140625 20.18199920654297,11.319000244140625z"/></g><g opacity="1" transform="matrix(1,0,0,1,288.7820129394531,122.0530014038086)"><path fill="rgb(255,255,255)" fill-opacity="1" d=" M-0.4519999921321869,4.5269999504089355 C-0.4519999921321869,4.5269999504089355 -3.2809998989105225,7.750999927520752 -5.880000114440918,13.479999542236328 C-7.261000156402588,16.52400016784668 -8.751999855041504,21.211000442504883 -8.751999855041504,21.211000442504883 C-6.502999782562256,18.39299964904785 -0.781000018119812,5.709000110626221 -0.4519999921321869,4.5269999504089355z"/><path stroke-linecap="round" stroke-linejoin="round" fill-opacity="0" stroke="rgb(215,216,216)" stroke-opacity="1" stroke-width="7.087" d=" M-0.4519999921321869,4.5269999504089355 C-0.4519999921321869,4.5269999504089355 -3.2809998989105225,7.750999927520752 -5.880000114440918,13.479999542236328 C-7.261000156402588,16.52400016784668 -8.751999855041504,21.211000442504883 -8.751999855041504,21.211000442504883 C-6.502999782562256,18.39299964904785 -0.781000018119812,5.709000110626221 -0.4519999921321869,4.5269999504089355z"/></g><g opacity="1" transform="matrix(1,0,0,1,249.3730010986328,156.3090057373047)"><path stroke-linecap="round" stroke-linejoin="round" fill-opacity="0" stroke="rgb(112,33,72)" stroke-opacity="1" stroke-width="7.087" d=" M-42.42399978637695,-6.9730000495910645 C-42.42399978637695,-6.9730000495910645 -22.21299934387207,8.140000343322754 1.0950000286102295,4.239999771118164 C17.506000518798828,1.49399995803833 38.47999954223633,-24.62700080871582 39.32099914550781,-30.17799949645996 C37.91600036621094,-27.091999053955078 33.92499923706055,-16.336999893188477 22.0939998626709,-7.163000106811523 C-10.564000129699707,18.15999984741211 -32.05799865722656,0.16099999845027924 -50.731998443603516,-17.90399932861328 C-50.731998443603516,-17.90399932861328 -49.88399887084961,-15.503000259399414 -42.42399978637695,-6.9730000495910645z"/></g></g><g transform="matrix(1.029770851135254,0.0007986847776919603,-0.0007990397862158716,1.0302284955978394,250.31405639648438,287.72369384765625)" opacity="1" style="display: block;"><g opacity="1" transform="matrix(1,0,0,1,49.5,5.5)"><path fill="rgb(255,255,255)" fill-opacity="1" d=" M29,-104.49500274658203 C11.968999862670898,-125.96700286865234 -43.797000885009766,-123.58599853515625 -65.88300323486328,-135.24200439453125 C-87.96900177001953,-146.8979949951172 -110.28500366210938,-112.49299621582031 -112.1259994506836,-105.74500274658203 C-112.1259994506836,-105.74500274658203 -114,-80.5 -100.1259994506836,-59.77299880981445 C-92.61799621582031,-48.55699920654297 -36.84700012207031,-34.07400131225586 -36.84700012207031,-34.07400131225586 C20.20800018310547,-16.283000946044922 46.03099822998047,-83.02300262451172 29,-104.49500274658203z M-39.05099868774414,-58.34199905395508 C-65.48200225830078,-57.49599838256836 -80.25,-81.5 -84.33599853515625,-101.04299926757812 C-67.5,-58 -41.3849983215332,-63.45100021362305 -41.3849983215332,-63.45100021362305 C-18,-61.25 -2.25,-75.5 6.1519999504089355,-80.2699966430664 C11.371000289916992,-78.8740005493164 -18.5,-59 -39.05099868774414,-58.34199905395508z"/></g></g><g transform="matrix(0.9470071792602539,0.3868228793144226,-0.38102492690086365,0.9645392298698425,85.09310913085938,-21.70703125)" opacity="0.0164599999999524" style="display: none;"><g opacity="1" transform="matrix(1,0,0,1,249.3730010986328,156.3090057373047)"><path stroke-linecap="round" stroke-linejoin="round" fill-opacity="0" stroke="rgb(112,33,72)" stroke-opacity="1" stroke-width="7.087" d=" M-42.42399978637695,-6.9730000495910645 C-42.42399978637695,-6.9730000495910645 -22.21299934387207,8.140000343322754 1.0950000286102295,4.239999771118164 C17.506000518798828,1.49399995803833 38.47999954223633,-24.62700080871582 39.32099914550781,-30.17799949645996 C37.91600036621094,-27.091999053955078 33.92499923706055,-16.336999893188477 22.0939998626709,-7.163000106811523 C-10.564000129699707,18.15999984741211 -32.05799865722656,0.16099999845027924 -50.731998443603516,-17.90399932861328 C-50.731998443603516,-17.90399932861328 -49.88399887084961,-15.503000259399414 -42.42399978637695,-6.9730000495910645z"/></g></g><g transform="matrix(1.029770851135254,0.0007986847776919603,-0.0007990397862158716,1.0302284955978394,259.90765380859375,210.39598083496094)" opacity="1" style="display: block;"><g opacity="1" transform="matrix(1,0,0,1,0,0)"><path stroke-linecap="round" stroke-linejoin="round" fill-opacity="0" stroke="rgb(112,33,72)" stroke-opacity="1" stroke-width="6" d=" M-44.1609992980957,-19.170000076293945 C-44.1609992980957,-19.170000076293945 -39.45899963378906,13.833999633789062 -4.501999855041504,18.530000686645508 C30.454999923706055,23.22599983215332 44.1609992980957,0.5450000166893005 44.1609992980957,0.5450000166893005"/></g></g><g transform="matrix(1.029770851135254,0.0007986847776919603,-0.0007990397862158716,1.0302284955978394,6.46291446685791,23.795928955078125)" opacity="1" style="display: block;"><g opacity="1" transform="matrix(1,0,0,1,0,0)"><g opacity="1" transform="matrix(1,0,0,1,404.83099365234375,193.51600646972656)"><path fill="rgb(255,255,255)" fill-opacity="1" d=" M-67.9209976196289,5.271999835968018 C-65.00900268554688,42.784000396728516 -32.2400016784668,70.83300018310547 5.271999835968018,67.9209976196289 C42.784000396728516,65.00900268554688 70.83300018310547,32.2400016784668 67.9209976196289,-5.271999835968018 C65.00900268554688,-42.784000396728516 32.2400016784668,-70.83300018310547 -5.271999835968018,-67.9209976196289 C-42.784000396728516,-65.00900268554688 -70.83300018310547,-32.2400016784668 -67.9209976196289,5.271999835968018z"/></g><g opacity="1" transform="matrix(1,0,0,1,106.11699676513672,152.25900268554688)"><path fill="rgb(255,255,255)" fill-opacity="1" d=" M-63.060001373291016,4.894999980926514 C-60.356998443603516,39.72200012207031 -29.93199920654297,65.76300048828125 4.894999980926514,63.060001373291016 C39.72200012207031,60.356998443603516 65.76300048828125,29.93199920654297 63.060001373291016,-4.894999980926514 C60.356998443603516,-39.72200012207031 29.93199920654297,-65.76300048828125 -4.894999980926514,-63.060001373291016 C-39.72200012207031,-60.356998443603516 -65.76300048828125,-29.93199920654297 -63.060001373291016,4.894999980926514z"/></g><g opacity="1" transform="matrix(1,0,0,1,404.83099365234375,193.51600646972656)"><path stroke-linecap="round" stroke-linejoin="round" fill-opacity="0" stroke="rgb(29,29,27)" stroke-opacity="1" stroke-width="6" d=" M-67.9209976196289,5.271999835968018 C-65.00900268554688,42.784000396728516 -32.2400016784668,70.83300018310547 5.271999835968018,67.9209976196289 C42.784000396728516,65.00900268554688 70.83300018310547,32.2400016784668 67.9209976196289,-5.271999835968018 C65.00900268554688,-42.784000396728516 32.2400016784668,-70.83300018310547 -5.271999835968018,-67.9209976196289 C-42.784000396728516,-65.00900268554688 -70.83300018310547,-32.2400016784668 -67.9209976196289,5.271999835968018z"/></g><g opacity="1" transform="matrix(1,0,0,1,106.11699676513672,152.25900268554688)"><path stroke-linecap="round" stroke-linejoin="round" fill-opacity="0" stroke="rgb(29,29,27)" stroke-opacity="1" stroke-width="6" d=" M-63.060001373291016,4.894999980926514 C-60.356998443603516,39.72200012207031 -29.93199920654297,65.76300048828125 4.894999980926514,63.060001373291016 C39.72200012207031,60.356998443603516 65.76300048828125,29.93199920654297 63.060001373291016,-4.894999980926514 C60.356998443603516,-39.72200012207031 29.93199920654297,-65.76300048828125 -4.894999980926514,-63.060001373291016 C-39.72200012207031,-60.356998443603516 -65.76300048828125,-29.93199920654297 -63.060001373291016,4.894999980926514z"/></g></g></g><g transform="matrix(1.029770851135254,0.0007986847776919603,-0.0007990397862158716,1.0302284955978394,6.46291446685791,23.795928955078125)" opacity="1" style="display: block;"><g opacity="1" transform="matrix(1,0,0,1,0,0)"><g opacity="1" transform="matrix(1,0,0,1,394.9490051269531,188.91600036621094)"><path fill="rgb(29,29,27)" fill-opacity="1" d=" M-32.652000427246094,2.5339999198913574 C-31.093000411987305,22.61400032043457 -15.211000442504883,37.757999420166016 2.822000026702881,36.358001708984375 C20.854999542236328,34.95800018310547 34.21099853515625,17.54599952697754 32.652000427246094,-2.5339999198913574 C31.093000411987305,-22.61400032043457 15.211000442504883,-37.757999420166016 -2.822000026702881,-36.358001708984375 C-20.854999542236328,-34.95800018310547 -34.21099853515625,-17.54599952697754 -32.652000427246094,2.5339999198913574z"/></g><g opacity="1" transform="matrix(1,0,0,1,111.51899719238281,151.01800537109375)"><path fill="rgb(29,29,27)" fill-opacity="1" d=" M-32.67900085449219,2.5369999408721924 C-31.118999481201172,22.634000778198242 -15.223999977111816,37.78900146484375 2.8239998817443848,36.38800048828125 C20.871999740600586,34.98699951171875 34.23899841308594,17.559999465942383 32.67900085449219,-2.5369999408721924 C31.118999481201172,-22.634000778198242 15.223999977111816,-37.78900146484375 -2.8239998817443848,-36.38800048828125 C-20.871999740600586,-34.98699951171875 -34.23899841308594,-17.559999465942383 -32.67900085449219,2.5369999408721924z"/></g><g opacity="1" transform="matrix(1,0,0,1,416.26800537109375,164.21600341796875)"><path fill="rgb(255,255,255)" fill-opacity="1" d=" M-15.25,1.184000015258789 C-14.595999717712402,9.605999946594238 -7.23799991607666,15.904000282287598 1.184000015258789,15.25 C9.605999946594238,14.595999717712402 15.904000282287598,7.23799991607666 15.25,-1.184000015258789 C14.595999717712402,-9.605999946594238 7.23799991607666,-15.904000282287598 -1.184000015258789,-15.25 C-9.605999946594238,-14.595999717712402 -15.904000282287598,-7.23799991607666 -15.25,1.184000015258789z"/></g><g opacity="1" transform="matrix(1,0,0,1,137.63400268554688,130.19700622558594)"><path fill="rgb(255,255,255)" fill-opacity="1" d=" M-15.262999534606934,1.184999942779541 C-14.609000205993652,9.61400032043457 -7.24399995803833,15.916999816894531 1.184999942779541,15.262999534606934 C9.61400032043457,14.609000205993652 15.916999816894531,7.24399995803833 15.262999534606934,-1.184999942779541 C14.609000205993652,-9.61400032043457 7.24399995803833,-15.916999816894531 -1.184999942779541,-15.262999534606934 C-9.61400032043457,-14.609000205993652 -15.916999816894531,-7.24399995803833 -15.262999534606934,1.184999942779541z"/></g><g opacity="1" transform="matrix(1,0,0,1,110.1510009765625,168.63499450683594)"><path fill="rgb(110,34,73)" fill-opacity="1" d=" M6.2179999351501465,-6.679999828338623 C2.4560000896453857,-5.685999870300293 1.2200000286102295,-5.507999897003174 -5.146999835968018,-8.807000160217285 C-12.723999977111816,-12.732000350952148 -21.54199981689453,0.7400000095367432 -10.199000358581543,6.88100004196167 C-5.066999912261963,9.659000396728516 1.531999945640564,9.97599983215332 6.550000190734863,9.03499984741211 C20.482999801635742,6.421999931335449 16.743000030517578,-9.461000442504883 6.2179999351501465,-6.679999828338623z"/></g><g opacity="1" transform="matrix(1,0,0,1,393.0249938964844,203.74000549316406)"><path fill="rgb(110,34,73)" fill-opacity="1" d=" M-5.244999885559082,-8.130000114440918 C-1.6690000295639038,-6.5970001220703125 -0.47200000286102295,-6.241000175476074 6.309000015258789,-8.574000358581543 C14.378000259399414,-11.35099983215332 21.132999420166016,3.265000104904175 9.015000343322754,7.683000087738037 C3.5329999923706055,9.682000160217285 -3.0420000553131104,9.031999588012695 -7.86899995803833,7.368000030517578 C-21.270999908447266,2.747999906539917 -15.25100040435791,-12.418999671936035 -5.244999885559082,-8.130000114440918z"/></g></g></g><g style="display: none;" transform="matrix(0.9670366048812866,0.16351306438446045,-0.17983630299568176,1.063574194908142,83.13890075683594,-24.854026794433594)" opacity="0.000108497419878546"><g opacity="1" transform="matrix(1,0,0,1,404.8190002441406,166.11300659179688)"><path fill="rgb(255,202,230)" fill-opacity="1" d=" M68.11699676513672,27.156999588012695 C68.10900115966797,25.490999221801758 68.06300354003906,23.81800079345703 67.93199920654297,22.131000518798828 C65.0199966430664,-15.380999565124512 32.250999450683594,-43.43000030517578 -5.261000156402588,-40.518001556396484 C-42.77299880981445,-37.60599899291992 -70.82099914550781,-4.836999893188477 -67.90899658203125,32.67499923706055 C-67.69599914550781,35.41400146484375 -67.30599975585938,38.09600067138672 -66.78500366210938,40.72600173950195 C-66.4469985961914,40.40999984741211 -76.31999969482422,-30.613000869750977 -7.538000106811523,-40.88800048828125 C14.16100025177002,-44.130001068115234 68.68000030517578,-26.113000869750977 68.11699676513672,27.156999588012695z"/><path stroke-linecap="round" stroke-linejoin="round" fill-opacity="0" stroke="rgb(201,87,133)" stroke-opacity="1" stroke-width="6" d=" M68.11699676513672,27.156999588012695 C68.10900115966797,25.490999221801758 68.06300354003906,23.81800079345703 67.93199920654297,22.131000518798828 C65.0199966430664,-15.380999565124512 32.250999450683594,-43.43000030517578 -5.261000156402588,-40.518001556396484 C-42.77299880981445,-37.60599899291992 -70.82099914550781,-4.836999893188477 -67.90899658203125,32.67499923706055 C-67.69599914550781,35.41400146484375 -67.30599975585938,38.09600067138672 -66.78500366210938,40.72600173950195 C-66.4469985961914,40.40999984741211 -76.31999969482422,-30.613000869750977 -7.538000106811523,-40.88800048828125 C14.16100025177002,-44.130001068115234 68.68000030517578,-26.113000869750977 68.11699676513672,27.156999588012695z"/></g><g opacity="1" transform="matrix(1,0,0,1,405.4859924316406,217.5030059814453)"><path fill="rgb(255,202,230)" fill-opacity="1" d=" M-67.4520034790039,-10.663999557495117 C-60.834999084472656,22.72100067138672 -30.155000686645508,46.632999420166016 4.617000102996826,43.933998107910156 C40.441001892089844,41.15299987792969 67.61299896240234,11.13599967956543 67.45099639892578,-24.23200035095215 C70.01399993896484,18.99799919128418 27.367000579833984,40.59199905395508 6.478000164031982,43.23099899291992 C-54.98500061035156,50.99700164794922 -67.1050033569336,-10.98900032043457 -67.4520034790039,-10.663999557495117z"/><path stroke-linecap="round" stroke-linejoin="round" fill-opacity="0" stroke="rgb(201,87,133)" stroke-opacity="1" stroke-width="6" d=" M-67.4520034790039,-10.663999557495117 C-60.834999084472656,22.72100067138672 -30.155000686645508,46.632999420166016 4.617000102996826,43.933998107910156 C40.441001892089844,41.15299987792969 67.61299896240234,11.13599967956543 67.45099639892578,-24.23200035095215 C70.01399993896484,18.99799919128418 27.367000579833984,40.59199905395508 6.478000164031982,43.23099899291992 C-54.98500061035156,50.99700164794922 -67.1050033569336,-10.98900032043457 -67.4520034790039,-10.663999557495117z"/></g><g opacity="1" transform="matrix(1,0,0,1,102.56800079345703,172.6490020751953)"><path fill="rgb(255,202,230)" fill-opacity="1" d=" M-57.37699890136719,-37.439998626708984 C-59.32099914550781,-30.496999740600586 -60.10200119018555,-23.10099983215332 -59.512001037597656,-15.494999885559082 C-56.808998107910156,19.332000732421875 -26.384000778198242,45.37300109863281 8.442999839782715,42.66999816894531 C31.062000274658203,40.91400146484375 49.9640007019043,27.459999084472656 59.70399856567383,8.706000328063965 C59.564998626708984,8.479999542236328 36.43199920654297,59.35100173950195 -29.795000076293945,33.27899932861328 C-46.79800033569336,26.584999084472656 -64.56800079345703,2.8510000705718994 -57.37699890136719,-37.439998626708984z"/><path stroke-linecap="round" stroke-linejoin="round" fill-opacity="0" stroke="rgb(201,87,133)" stroke-opacity="1" stroke-width="6" d=" M-57.37699890136719,-37.439998626708984 C-59.32099914550781,-30.496999740600586 -60.10200119018555,-23.10099983215332 -59.512001037597656,-15.494999885559082 C-56.808998107910156,19.332000732421875 -26.384000778198242,45.37300109863281 8.442999839782715,42.66999816894531 C31.062000274658203,40.91400146484375 49.9640007019043,27.459999084472656 59.70399856567383,8.706000328063965 C59.564998626708984,8.479999542236328 36.43199920654297,59.35100173950195 -29.795000076293945,33.27899932861328 C-46.79800033569336,26.584999084472656 -64.56800079345703,2.8510000705718994 -57.37699890136719,-37.439998626708984z"/></g><g opacity="1" transform="matrix(1,0,0,1,107.27999877929688,135.17999267578125)"><path fill="rgb(255,202,230)" fill-opacity="1" d=" M61.89699935913086,12.184000015258789 C59.194000244140625,-22.64299964904785 28.768999099731445,-48.685001373291016 -6.058000087738037,-45.981998443603516 C-33.27899932861328,-43.86899948120117 -55.132999420166016,-24.81999969482422 -62.0890007019043,0.028999999165534973 C-42.279998779296875,-45.18000030517578 -1.2050000429153442,-48.29999923706055 16.101999282836914,-41.12799835205078 C78.72000122070312,-15.180000305175781 54.85599899291992,45.95100021362305 54.99300003051758,46.17399978637695 C60.25,36.051998138427734 62.845001220703125,24.392000198364258 61.89699935913086,12.184000015258789z"/><path stroke-linecap="round" stroke-linejoin="round" fill-opacity="0" stroke="rgb(201,87,133)" stroke-opacity="1" stroke-width="6" d=" M61.89699935913086,12.184000015258789 C59.194000244140625,-22.64299964904785 28.768999099731445,-48.685001373291016 -6.058000087738037,-45.981998443603516 C-33.27899932861328,-43.86899948120117 -55.132999420166016,-24.81999969482422 -62.0890007019043,0.028999999165534973 C-42.279998779296875,-45.18000030517578 -1.2050000429153442,-48.29999923706055 16.101999282836914,-41.12799835205078 C78.72000122070312,-15.180000305175781 54.85599899291992,45.95100021362305 54.99300003051758,46.17399978637695 C60.25,36.051998138427734 62.845001220703125,24.392000198364258 61.89699935913086,12.184000015258789z"/></g></g><g transform="matrix(1.029770851135254,0.0007986847776919603,-0.0007990397862158716,1.0302284955978394,6.46291446685791,23.795928955078125)" opacity="1" style="display: block;"><g opacity="1" transform="matrix(1,0,0,1,159.0989990234375,77.74400329589844)"><path stroke-linecap="round" stroke-linejoin="round" fill-opacity="0" stroke="rgb(112,33,72)" stroke-opacity="1" stroke-width="6" d=" M-15.390999794006348,8.347999572753906 C-15.390999794006348,8.347999572753906 9.130000114440918,5.738999843597412 15.390999794006348,-8.347999572753906"/></g><g opacity="1" transform="matrix(1,0,0,1,353.2250061035156,97.83100128173828)"><path stroke-linecap="round" stroke-linejoin="round" fill-opacity="0" stroke="rgb(112,33,72)" stroke-opacity="1" stroke-width="6" d=" M-9.61400032043457,-11.73900032043457 C-9.61400032043457,-11.73900032043457 -5.515999794006348,7.565000057220459 9.61400032043457,11.73900032043457"/></g></g><g transform="matrix(0.9649662375450134,0.16726548969745636,-0.1845647096633911,1.064766526222229,124.66437530517578,-250.22508239746094)" opacity="1" style="display: none;"><g opacity="1" transform="matrix(1,0,0,1,196.20899963378906,310.4259948730469)"><path fill="rgb(234,57,91)" fill-opacity="1" d=" M-13.850000381469727,70.447998046875 C-13.850000381469727,70.447998046875 -95.76300048828125,27.143999099731445 -91.09300231933594,-26.072999954223633 C-85.89299774169922,-85.33200073242188 -22.197999954223633,-81.37799835205078 -1.3279999494552612,-37.029998779296875 C-1.3279999494552612,-37.029998779296875 24.672000885009766,-74.39099884033203 64.04000091552734,-58.94300079345703 C97.27999877929688,-45.900001525878906 96.75900268554688,-8.310999870300293 80.30899810791016,12.4399995803833 C71.80799865722656,23.163999557495117 36.87900161743164,61.577999114990234 -13.850000381469727,70.447998046875z"/><path stroke-linecap="round" stroke-linejoin="round" fill-opacity="0" stroke="rgb(140,21,64)" stroke-opacity="1" stroke-width="6" d=" M-13.850000381469727,70.447998046875 C-13.850000381469727,70.447998046875 -95.76300048828125,27.143999099731445 -91.09300231933594,-26.072999954223633 C-85.89299774169922,-85.33200073242188 -22.197999954223633,-81.37799835205078 -1.3279999494552612,-37.029998779296875 C-1.3279999494552612,-37.029998779296875 24.672000885009766,-74.39099884033203 64.04000091552734,-58.94300079345703 C97.27999877929688,-45.900001525878906 96.75900268554688,-8.310999870300293 80.30899810791016,12.4399995803833 C71.80799865722656,23.163999557495117 36.87900161743164,61.577999114990234 -13.850000381469727,70.447998046875z"/></g><g opacity="1" transform="matrix(1,0,0,1,192.31100463867188,279.3479919433594)"><path fill="rgb(234,57,91)" fill-opacity="1" d=" M-4.255000114440918,8.135000228881836 C-4.255000114440918,8.135000228881836 -1.3200000524520874,-1.0290000438690186 4.255000114440918,-8.135000228881836"/><path stroke-linecap="round" stroke-linejoin="round" fill-opacity="0" stroke="rgb(140,21,64)" stroke-opacity="1" stroke-width="6" d=" M-4.255000114440918,8.135000228881836 C-4.255000114440918,8.135000228881836 -1.3200000524520874,-1.0290000438690186 4.255000114440918,-8.135000228881836"/></g><g opacity="1" transform="matrix(1,0,0,1,165.31100463867188,264.35400390625)"><path fill="rgb(214,43,84)" fill-opacity="1" d=" M-26.266000747680664,-20.76300048828125 C-26.266000747680664,-20.76300048828125 14.722999572753906,-11.567000389099121 20.13599967956543,21.30299949645996 C20.13599967956543,21.30299949645996 22.482999801635742,13.998000144958496 26.266000747680664,9.17199993133545 C26.266000747680664,9.17199993133545 11.104000091552734,-26.04599952697754 -26.266000747680664,-20.76300048828125z"/></g><g opacity="1" transform="matrix(1,0,0,1,206.13099670410156,317.0920104980469)"><path fill="rgb(214,43,84)" fill-opacity="1" d=" M56.79499816894531,-61.17399978637695 C56.79499816894531,-61.17399978637695 87.83799743652344,-46.82600021362305 75.83799743652344,-10.826000213623047 C63.8380012512207,25.173999786376953 -1.1180000305175781,59.347999572753906 -23.0310001373291,61.17399978637695 C-23.0310001373291,61.17399978637695 -63.72600173950195,37.21699905395508 -78.59600067138672,16.716999053955078 C-78.59600067138672,16.716999053955078 -30.073999404907227,49.630001068115234 -20.944000244140625,47.57600021362305 C-11.814000129699707,45.52199935913086 55.750999450683594,21.283000946044922 66.18599700927734,-12.456999778747559 C76.62100219726562,-46.196998596191406 56.79499816894531,-61.17399978637695 56.79499816894531,-61.17399978637695z"/></g><g opacity="1" transform="matrix(1,0,0,1,226.36300659179688,268.7250061035156)"><path fill="rgb(255,255,255)" fill-opacity="1" d=" M-0.515999972820282,0.2840000092983246 C-8.991999626159668,4.581999778747559 -12.657999992370605,13.553000450134277 -16.275999069213867,8.87399959564209 C-18.163000106811523,6.433000087738037 -12.491000175476074,-2.7950000762939453 -4.014999866485596,-7.0929999351501465 C4.460999965667725,-11.390999794006348 15.303000450134277,-10.788000106811523 16.39900016784668,-7.890999794006348 C18.354999542236328,-2.7200000286102295 7.960000038146973,-4.013999938964844 -0.515999972820282,0.2840000092983246z"/></g><g opacity="1" transform="matrix(1,0,0,1,135.6230010986328,257.2869873046875)"><path fill="rgb(255,255,255)" fill-opacity="1" d=" M0.4449999928474426,1.5399999618530273 C-6.11899995803833,4.868000030517578 -9.803000450134277,11.458999633789062 -13.196999549865723,6.666999816894531 C-14.967000007629395,4.166999816894531 -9.66100025177002,-2.48799991607666 -3.0969998836517334,-5.815999984741211 C3.4670000076293945,-9.144000053405762 12.053000450134277,-9.109000205993652 13.215999603271484,-6.245999813079834 C15.291999816894531,-1.1360000371932983 7.008999824523926,-1.7879999876022339 0.4449999928474426,1.5399999618530273z"/></g></g><g transform="matrix(1.0299999713897705,0,0,1.0299999713897705,250.24205017089844,287.739990234375)" opacity="1" style="display: none;"><g opacity="1" transform="matrix(1,0,0,1,0,0)"><path fill="rgb(234,57,91)" fill-opacity="1" d=" M49.97422409057617,-78.05011749267578 C37.48222351074219,-82.73512268066406 29.974224090576172,-76.05011749267578 36.97422409057617,-68.05011749267578 C43.97422409057617,-60.05012130737305 50.72422409057617,-64.05011749267578 51.47422409057617,-67.05011749267578 C52.22422409057617,-70.05011749267578 57.97422409057617,-75.05011749267578 49.97422409057617,-78.05011749267578z"/></g><g opacity="1" transform="matrix(1,0,0,1,0,0)"><path fill="rgb(234,57,91)" fill-opacity="1" d=" M78.47852325439453,-119.5221939086914 C73.97852325439453,-118.5221939086914 71.47852325439453,-116.0221939086914 74.97852325439453,-111.0221939086914 C78.47852325439453,-106.0221939086914 88.97852325439453,-105.5221939086914 87.97852325439453,-110.5221939086914 C86.97852325439453,-115.5221939086914 82.97852325439453,-120.5221939086914 78.47852325439453,-119.5221939086914z"/></g><g opacity="1" transform="matrix(1,0,0,1,0,0)"><path fill="rgb(234,57,91)" fill-opacity="1" d=" M109.96420288085938,-162.00643920898438 C105.21420288085938,-159.50643920898438 102.46420288085938,-154.75643920898438 108.21420288085938,-151.25643920898438 C113.96420288085938,-147.75643920898438 121.46420288085938,-147.00643920898438 121.71420288085938,-152.00643920898438 C121.96420288085938,-157.00643920898438 114.71420288085938,-164.50643920898438 109.96420288085938,-162.00643920898438z"/></g><g opacity="1" transform="matrix(1,0,0,1,0,0)"><path fill="rgb(234,57,91)" fill-opacity="1" d=" M101.73353576660156,-222.72708129882812 C99.48353576660156,-220.97708129882812 94.98353576660156,-217.97708129882812 97.73353576660156,-212.97708129882812 C100.48353576660156,-207.97708129882812 105.23353576660156,-208.22708129882812 107.23353576660156,-210.47708129882812 C109.23353576660156,-212.72708129882812 112.48353576660156,-217.72708129882812 110.23353576660156,-219.72708129882812 C107.98353576660156,-221.72708129882812 103.98353576660156,-224.47708129882812 101.73353576660156,-222.72708129882812z"/></g><g opacity="1" transform="matrix(1,0,0,1,0,0)"><path fill="rgb(234,57,91)" fill-opacity="1" d=" M70.49498748779297,-243.7256622314453 C68.74498748779297,-245.2256622314453 58.74498748779297,-241.7256622314453 60.49498748779297,-237.4756622314453 C62.24498748779297,-233.2256622314453 65.49498748779297,-231.4756622314453 68.74498748779297,-233.9756622314453 C71.99498748779297,-236.4756622314453 72.24498748779297,-242.2256622314453 70.49498748779297,-243.7256622314453z"/></g><g opacity="1" transform="matrix(1,0,0,1,0,0)"><path fill="rgb(234,57,91)" fill-opacity="1" d=" M32.747135162353516,-231.72708129882812 C29.997135162353516,-235.22708129882812 25.247135162353516,-232.22708129882812 23.997135162353516,-228.72708129882812 C22.747135162353516,-225.22708129882812 27.247135162353516,-222.97708129882812 30.747135162353516,-224.22708129882812 C34.247135162353516,-225.47708129882812 35.497135162353516,-228.22708129882812 32.747135162353516,-231.72708129882812z"/></g><g opacity="1" transform="matrix(1,0,0,1,0,0)"><path fill="rgb(234,57,91)" fill-opacity="1" d=" M15.987828254699707,-237.4821014404297 C12.487828254699707,-239.2321014404297 6.237827777862549,-237.4821014404297 9.987828254699707,-233.2321014404297 C13.737828254699707,-228.9821014404297 17.23782730102539,-229.4821014404297 18.48782730102539,-231.9821014404297 C19.73782730102539,-234.4821014404297 19.48782730102539,-235.7321014404297 15.987828254699707,-237.4821014404297z"/></g><g opacity="1" transform="matrix(1,0,0,1,0,0)"><path fill="rgb(234,57,91)" fill-opacity="1" d=" M-4.515036106109619,-254.23568725585938 C-5.515036106109619,-250.23568725585938 -9.015035629272461,-244.73568725585938 -2.015036106109619,-245.73568725585938 C4.984963893890381,-246.73568725585938 8.234964370727539,-251.48568725585938 4.734963893890381,-253.73568725585938 C1.2349640130996704,-255.98568725585938 -3.515036106109619,-258.2356872558594 -4.515036106109619,-254.23568725585938z"/></g><g opacity="1" transform="matrix(1,0,0,1,0,0)"><path fill="rgb(234,57,91)" fill-opacity="1" d=" M-47.99856948852539,-266.9778137207031 C-51.24856948852539,-264.9778137207031 -49.24856948852539,-260.4778137207031 -46.49856948852539,-256.9778137207031 C-43.74856948852539,-253.47779846191406 -39.74856948852539,-258.7278137207031 -39.99856948852539,-263.9778137207031 C-40.24856948852539,-269.2278137207031 -44.74856948852539,-268.9778137207031 -47.99856948852539,-266.9778137207031z"/></g><g opacity="1" transform="matrix(1,0,0,1,0,0)"><path fill="rgb(234,57,91)" fill-opacity="1" d=" M-92.47207641601562,-235.4871063232422 C-96.97207641601562,-233.4871063232422 -95.72207641601562,-227.2371063232422 -89.97207641601562,-224.2371063232422 C-84.22207641601562,-221.2371063232422 -80.47207641601562,-227.9871063232422 -82.72207641601562,-231.9871063232422 C-84.74307250976562,-235.58111572265625 -87.97207641601562,-237.4871063232422 -92.47207641601562,-235.4871063232422z"/></g><g opacity="1" transform="matrix(1,0,0,1,0,0)"><path fill="rgb(234,57,91)" fill-opacity="1" d=" M-87.72279357910156,-186.50572204589844 C-90.27178955078125,-187.92172241210938 -94.22279357910156,-187.25572204589844 -96.22279357910156,-182.00572204589844 C-98.22279357910156,-176.75572204589844 -91.47279357910156,-174.25572204589844 -86.47279357910156,-176.25572204589844 C-81.47279357910156,-178.25572204589844 -83.22279357910156,-184.00572204589844 -87.72279357910156,-186.50572204589844z"/></g><g opacity="1" transform="matrix(1,0,0,1,0,0)"><path fill="rgb(234,57,91)" fill-opacity="1" d=" M-76.47493743896484,-149.50430297851562 C-78.72493743896484,-154.75430297851562 -82.47493743896484,-150.00430297851562 -84.72493743896484,-147.25430297851562 C-86.97493743896484,-144.50430297851562 -84.47493743896484,-137.25430297851562 -77.72493743896484,-139.25430297851562 C-70.97493743896484,-141.25430297851562 -74.22493743896484,-144.25430297851562 -76.47493743896484,-149.50430297851562z"/></g><g opacity="1" transform="matrix(1,0,0,1,0,0)"><path fill="rgb(234,57,91)" fill-opacity="1" d=" M-62.9792366027832,-119.01145935058594 C-65.72923278808594,-116.26145935058594 -63.4792366027832,-107.76145935058594 -57.4792366027832,-106.01145935058594 C-51.4792366027832,-104.26145935058594 -49.9792366027832,-114.01145935058594 -49.9792366027832,-117.26145935058594 C-49.9792366027832,-120.51145935058594 -60.2292366027832,-121.76145935058594 -62.9792366027832,-119.01145935058594z"/></g><g opacity="1" transform="matrix(1,0,0,1,0,0)"><path fill="rgb(234,57,91)" fill-opacity="1" d=" M-25.733531951904297,-84.02434539794922 C-30.239532470703125,-85.68434143066406 -31.983531951904297,-83.52434539794922 -33.7335319519043,-81.02434539794922 C-35.4835319519043,-78.52434539794922 -34.9835319519043,-72.02434539794922 -25.733531951904297,-72.77434539794922 C-16.483531951904297,-73.52434539794922 -20.983531951904297,-82.27434539794922 -25.733531951904297,-84.02434539794922z"/></g></g><g transform="matrix(0.000006773420864192303,0,0,0.000006776431291655172,236.61581420898438,148.61053466796875)" opacity="1" style="display: block;"><g opacity="1" transform="matrix(1,0,0,1,0,0)"><path fill="rgb(249,255,136)" fill-opacity="1" d=" M0.9779999852180481,-20.589000701904297 C0.9779999852180481,-20.589000701904297 -1.1080000400543213,0.5249999761581421 -13.303999900817871,0.9660000205039978 C-13.303999900817871,0.9660000205039978 0,2.9059998989105225 0.7559999823570251,20.589000701904297 C0.7559999823570251,20.589000701904297 3.3259999752044678,1.8040000200271606 13.303999900817871,0.9660000205039978 C13.303999900817871,0.9660000205039978 1.36899995803833,-2.359999895095825 0.9779999852180481,-20.589000701904297z"/><path stroke-linecap="round" stroke-linejoin="round" fill-opacity="0" stroke="rgb(234,158,47)" stroke-opacity="1" stroke-width="5" d=" M0.9779999852180481,-20.589000701904297 C0.9779999852180481,-20.589000701904297 -1.1080000400543213,0.5249999761581421 -13.303999900817871,0.9660000205039978 C-13.303999900817871,0.9660000205039978 0,2.9059998989105225 0.7559999823570251,20.589000701904297 C0.7559999823570251,20.589000701904297 3.3259999752044678,1.8040000200271606 13.303999900817871,0.9660000205039978 C13.303999900817871,0.9660000205039978 1.36899995803833,-2.359999895095825 0.9779999852180481,-20.589000701904297z"/></g></g><g transform="matrix(0,0,0,0,174.0934600830078,101.83291625976562)" opacity="1" style="display: block;"><g opacity="1" transform="matrix(1,0,0,1,0,0)"><path fill="rgb(249,255,136)" fill-opacity="1" d=" M0.8019999861717224,-16.881999969482422 C0.8019999861717224,-16.881999969482422 -0.9089999794960022,0.4309999942779541 -10.907999992370605,0.7919999957084656 C-10.907999992370605,0.7919999957084656 0,2.384000062942505 0.6200000047683716,16.881999969482422 C0.6200000047683716,16.881999969482422 2.7269999980926514,1.4789999723434448 10.907999992370605,0.7919999957084656 C10.907999992370605,0.7919999957084656 1.1230000257492065,-1.934999942779541 0.8019999861717224,-16.881999969482422z"/><path stroke-linecap="round" stroke-linejoin="round" fill-opacity="0" stroke="rgb(234,158,47)" stroke-opacity="1" stroke-width="4.1" d=" M0.8019999861717224,-16.881999969482422 C0.8019999861717224,-16.881999969482422 -0.9089999794960022,0.4309999942779541 -10.907999992370605,0.7919999957084656 C-10.907999992370605,0.7919999957084656 0,2.384000062942505 0.6200000047683716,16.881999969482422 C0.6200000047683716,16.881999969482422 2.7269999980926514,1.4789999723434448 10.907999992370605,0.7919999957084656 C10.907999992370605,0.7919999957084656 1.1230000257492065,-1.934999942779541 0.8019999861717224,-16.881999969482422z"/></g></g><g transform="matrix(1.0297679901123047,0.00254541402682662,-0.0025449933018535376,1.0302256345748901,7.03446102142334,23.188539505004883)" opacity="1" style="display: block;"><g opacity="1" transform="matrix(1,0,0,1,283.1600036621094,312.468994140625)"><path fill="rgb(255,202,230)" fill-opacity="1" d=" M36.902000427246094,-32.55099868774414 C36.902000427246094,-32.55099868774414 -33.597999572753906,-19.80699920654297 -36.67499923706055,-0.9660000205039978 C-39.75199890136719,17.875 -11.304203987121582,40.444305419921875 32.93679428100586,29.835304260253906"/></g><g opacity="1" transform="matrix(1,0,0,1,279.70098876953125,320.8349914550781)"><path fill="rgb(251,168,212)" fill-opacity="1" d=" M-15.04800033569336,-21.579999923706055 C-15.04800033569336,-21.579999923706055 -22.8439998626709,-15.133000373840332 -22.447999954223633,-6.626999855041504 C-22.12700080871582,0.2630000114440918 -16.020000457763672,8.531000137329102 -1.3890000581741333,13.354999542236328 C-1.3890000581741333,13.354999542236328 22.622798919677734,20.606304168701172 30.690799713134766,19.585304260253906 C30.690799713134766,19.585304260253906 -3.25,28.933000564575195 -24.53700065612793,7.181000232696533 C-24.53700065612793,7.181000232696533 -33.62200164794922,-1.687000036239624 -29.624000549316406,-10.409000396728516 C-29.624000549316406,-10.409000396728516 -27.17799949645996,-17.53700065612793 -15.04800033569336,-21.579999923706055z"/></g><g opacity="1" transform="matrix(1,0,0,1,287.62701416015625,298.1759948730469)"><path fill="rgb(255,255,255)" fill-opacity="1" d=" M0.5070000290870667,2.6440000534057617 C-4.869999885559082,4.284999847412109 -9.605999946594238,4.380000114440918 -10.071000099182129,2.8559999465942383 C-10.53600025177002,1.3320000171661377 -6.553999900817871,-1.2339999675750732 -1.1770000457763672,-2.875 C4.199999809265137,-4.515999794006348 9.611000061035156,-4.130000114440918 10.076000213623047,-2.6059999465942383 C10.541000366210938,-1.0820000171661377 5.883999824523926,1.003000020980835 0.5070000290870667,2.6440000534057617z"/></g><g opacity="1" transform="matrix(1,0,0,1,303.6929931640625,294.79998779296875)"><path fill="rgb(255,255,255)" fill-opacity="1" d=" M-0.23100000619888306,-2.427000045776367 C-1.906000018119812,-2.2669999599456787 -3.1610000133514404,-1.0520000457763672 -3.0329999923706055,0.289000004529953 C-2.9049999713897705,1.6299999952316284 -1.444000005722046,2.5869998931884766 0.23100000619888306,2.427000045776367 C1.906000018119812,2.2669999599456787 3.1610000133514404,1.0520000457763672 3.0329999923706055,-0.289000004529953 C2.9049999713897705,-1.6299999952316284 1.444000005722046,-2.5869998931884766 -0.23100000619888306,-2.427000045776367z"/></g><g opacity="1" transform="matrix(1,0,0,1,283.1600036621094,312.468994140625)"><path stroke-linecap="round" stroke-linejoin="round" fill-opacity="0" stroke="rgb(201,87,133)" stroke-opacity="1" stroke-width="6" d=" M36.902000427246094,-32.55099868774414 C36.902000427246094,-32.55099868774414 -33.597999572753906,-19.80699920654297 -36.67499923706055,-0.9660000205039978 C-39.75199890136719,17.875 -11.304203987121582,40.444305419921875 32.93679428100586,29.835304260253906"/></g></g><g transform="matrix(1.0297682285308838,-0.0024538482539355755,0.0024520482402294874,1.0302258729934692,21.030658721923828,24.1754207611084)" opacity="1" style="display: block;"><g opacity="1" transform="matrix(1,0,0,1,115.31700134277344,293.9630126953125)"><path fill="rgb(255,202,230)" fill-opacity="1" d=" M-6.82599401473999,-35.696990966796875 C-6.825947284698486,-35.69700241088867 -10.869889259338379,-25.783998489379883 1.9131122827529907,-17.9580020904541 C14.696110725402832,-10.13200569152832 35.69609069824219,10.085978507995605 27.08709144592285,22.737977981567383 C17.888092041015625,36.25697708129883 -1.0870000123977661,39.172000885009766 -14.652000427246094,31.60700035095215 C-28.217023849487305,24.0419864654541 -42.04297637939453,2.128939628601074 -6.82599401473999,-35.696990966796875z"/><path stroke-linecap="round" stroke-linejoin="round" fill-opacity="0" stroke="rgb(201,87,133)" stroke-opacity="1" stroke-width="6" d=" M-6.82599401473999,-35.696990966796875 C-6.825947284698486,-35.69700241088867 -10.869889259338379,-25.783998489379883 1.9131122827529907,-17.9580020904541 C14.696110725402832,-10.13200569152832 35.69609069824219,10.085978507995605 27.08709144592285,22.737977981567383 C17.888092041015625,36.25697708129883 -1.0870000123977661,39.172000885009766 -14.652000427246094,31.60700035095215 C-28.217023849487305,24.0419864654541 -42.04297637939453,2.128939628601074 -6.82599401473999,-35.696990966796875z"/></g><g opacity="1" transform="matrix(1,0,0,1,114.14700317382812,296.5119934082031)"><path fill="rgb(251,168,212)" fill-opacity="1" d=" M-8.754006385803223,-30.175989151000977 C-8.754006385803223,-30.175989151000977 -30.17799949645996,11.12600040435791 -2.003999948501587,20.679000854492188 C-2.003999948501587,20.679000854492188 13.64808464050293,26.318986892700195 25.3870849609375,18.88398551940918 C25.3870849609375,18.88398551940918 15.698002815246582,34.7599983215332 -6.474004745483398,28.86199951171875 C-6.474004745483398,28.86199951171875 -47.465999603271484,16.498987197875977 -8.754006385803223,-30.175989151000977z"/></g></g></g><g clip-path="url(#__lottie_element_69)" transform="matrix(1,0,0,1,0,0)" opacity="1" style="display: block;"><g transform="matrix(1.0299999713897705,0,0,1.0299999713897705,6.132049560546875,24.05999755859375)" opacity="1" style="display: block;"><g opacity="1" transform="matrix(1,0,0,1,228.9320068359375,364.6669921875)"><path fill="rgb(100,211,255)" fill-opacity="1" d=" M-23.659000396728516,-66.49199676513672 C-23.659000396728516,-66.49199676513672 -190.13153076171875,-78.17647552490234 -190.25453186035156,-22.250473022460938 C-190.34751892089844,20.020526885986328 -108.70356750488281,-7.305481433868408 -129.3375701904297,31.303518295288086 C-149.1065673828125,68.29251861572266 38.2995719909668,81.8170166015625 38.2995719909668,51.03201675415039 C38.2995719909668,10.858015060424805 192.091552734375,63.519535064697266 167.2845458984375,8.215533256530762 C167.2845458984375,8.215533256530762 159.11358642578125,-8.503503799438477 174.28158569335938,-11.542503356933594 C197.71458435058594,-16.23850440979004 236.68899536132812,-62.553001403808594 -23.659000396728516,-66.49199676513672z"/><path stroke-linecap="round" stroke-linejoin="round" fill-opacity="0" stroke="rgb(41,122,183)" stroke-opacity="1" stroke-width="6" d=" M-23.659000396728516,-66.49199676513672 C-23.659000396728516,-66.49199676513672 -190.13153076171875,-78.17647552490234 -190.25453186035156,-22.250473022460938 C-190.34751892089844,20.020526885986328 -108.70356750488281,-7.305481433868408 -129.3375701904297,31.303518295288086 C-149.1065673828125,68.29251861572266 38.2995719909668,81.8170166015625 38.2995719909668,51.03201675415039 C38.2995719909668,10.858015060424805 192.091552734375,63.519535064697266 167.2845458984375,8.215533256530762 C167.2845458984375,8.215533256530762 159.11358642578125,-8.503503799438477 174.28158569335938,-11.542503356933594 C197.71458435058594,-16.23850440979004 236.68899536132812,-62.553001403808594 -23.659000396728516,-66.49199676513672z"/></g><g opacity="1" transform="matrix(1,0,0,1,234.30299377441406,341.1789855957031)"><path fill="rgb(42,174,232)" fill-opacity="1" d=" M-123.95600128173828,-7.993000030517578 C-122.83899688720703,-25.31800079345703 -66.43599700927734,-35.784000396728516 2.0230000019073486,-31.3700008392334 C70.48200225830078,-26.95599937438965 125.072998046875,-9.331999778747559 123.95600128173828,7.993000030517578 C122.83899688720703,25.31800079345703 66.43599700927734,35.784000396728516 -2.0230000019073486,31.3700008392334 C-70.48200225830078,26.95599937438965 -125.072998046875,9.331999778747559 -123.95600128173828,-7.993000030517578z"/></g><g opacity="1" transform="matrix(1,0,0,1,354.1969909667969,324.67498779296875)"><path fill="rgb(197,247,255)" fill-opacity="1" d=" M-61.27199935913086,-20.038999557495117 C-61.27199935913086,-20.038999557495117 25.915525436401367,-15.151511192321777 53.47552490234375,2.3634886741638184 C53.47552490234375,2.3634886741638184 69.95106506347656,11.365992546081543 59.23606872558594,19.843992233276367 C59.23606872558594,19.843992233276367 61.62356948852539,11.42750358581543 36.058570861816406,2.297503709793091 C26.63157081604004,-1.0694962739944458 -21.75,-16.517000198364258 -61.27199935913086,-20.038999557495117z"/></g><g opacity="1" transform="matrix(1,0,0,1,365.54998779296875,383.0889892578125)"><path fill="rgb(197,247,255)" fill-opacity="1" d=" M26.20854949951172,-12.815465927124023 C26.20854949951172,-12.815465927124023 37.57054901123047,3.3525335788726807 23.830549240112305,9.818533897399902 C23.830549240112305,9.818533897399902 14.962879180908203,16.56702995300293 -25.809120178222656,13.825030326843262 C-26.043121337890625,13.809029579162598 -26.05312156677246,13.467029571533203 -25.82012176513672,13.448029518127441 C-15.905120849609375,12.65602970123291 17.685548782348633,9.64953327178955 22.556549072265625,4.695533752441406 C28.328548431396484,-1.1744663715362549 26.20854949951172,-12.815465927124023 26.20854949951172,-12.815465927124023z"/></g><g opacity="1" transform="matrix(1,0,0,1,107.70500183105469,369.5840148925781)"><path fill="rgb(42,174,232)" fill-opacity="1" d=" M-35.513999938964844,-57.72600173950195 C-35.513999938964844,-57.72600173950195 -61.4625244140625,-43.070472717285156 -55.72352600097656,-25.33147430419922 C-49.984527587890625,-7.592473983764648 5.227451324462891,-12.885977745056152 6.344451427459717,8.615022659301758 C7.279451370239258,26.615022659301758 -17.501571655273438,42.561519622802734 63.6284294128418,58.21352005004883 C63.6284294128418,58.21352005004883 -18.19957160949707,49.487518310546875 -5.501571178436279,27.169519424438477 C7.411428928375244,4.4735188484191895 -18.61353302001953,0.20301496982574463 -18.61353302001953,0.20301496982574463 C-18.61353302001953,0.20301496982574463 -63.548526763916016,-2.5284738540649414 -65.89652252197266,-22.72247314453125 C-67.08352661132812,-32.92847442626953 -64.7959976196289,-47.05099868774414 -35.513999938964844,-57.72600173950195z"/></g></g><g clip-path="url(#__lottie_element_76)" transform="matrix(1.0299999713897705,0,0,1.0299999713897705,-13.437950134277344,24.05999755859375)" opacity="1" style="display: block;"><g clip-path="url(#__lottie_element_77)"><g style="display: none;"><g><path/></g></g></g></g><g transform="matrix(1.0299999713897705,0,0,1.0299999713897705,6.132049560546875,24.05999755859375)" opacity="1" style="display: block;"><g opacity="1" transform="matrix(1,0,0,1,234.86599731445312,341.6600036621094)"><path fill="rgb(255,202,230)" fill-opacity="1" d=" M112.78600311279297,6.663000106811523 C111.91300201416016,19.600000381469727 59.73099899291992,27.78700065612793 -2.505000114440918,23.586999893188477 C-64.74099731445312,19.386999130249023 -113.65799713134766,3.569999933242798 -112.78500366210938,-9.366999626159668 C-111.91200256347656,-22.304000854492188 -61.58000183105469,-27.46299934387207 0.656000018119812,-23.26300048828125 C62.891998291015625,-19.062999725341797 113.65899658203125,-6.27400016784668 112.78600311279297,6.663000106811523z"/></g><g opacity="1" transform="matrix(1,0,0,1,239.06700134277344,260.9049987792969)"><path fill="rgb(255,202,230)" fill-opacity="1" d=" M-116.98600006103516,71.38700103759766 C-116.98600006103516,71.38700103759766 -116.74199676513672,53.70800018310547 -115.40599822998047,23.948999404907227 C-115.40599822998047,23.948999404907227 -111.98500061035156,-34.637001037597656 -101.94000244140625,-64.83799743652344 C-91.8949966430664,-95.03900146484375 134.13900756835938,-109.24099731445312 115.94400024414062,-15.552000045776367 C115.94400024414062,-15.552000045776367 97.63500213623047,47.96900177001953 108.64099884033203,87.62100219726562"/><path stroke-linecap="round" stroke-linejoin="round" fill-opacity="0" stroke="rgb(201,87,133)" stroke-opacity="1" stroke-width="6" d=" M-116.98600006103516,71.38700103759766 C-116.98600006103516,71.38700103759766 -116.74199676513672,53.70800018310547 -115.40599822998047,23.948999404907227 C-115.40599822998047,23.948999404907227 -111.98500061035156,-34.637001037597656 -101.94000244140625,-64.83799743652344 C-91.8949966430664,-95.03900146484375 134.13900756835938,-109.24099731445312 115.94400024414062,-15.552000045776367 C115.94400024414062,-15.552000045776367 97.63500213623047,47.96900177001953 108.64099884033203,87.62100219726562"/></g></g><g transform="matrix(1.0299999713897705,0,0,1.0299999713897705,6.132049560546875,24.05999755859375)" opacity="1" style="display: block;"><g opacity="1" transform="matrix(1,0,0,1,254.92100524902344,177.32699584960938)"><path fill="rgb(255,202,230)" fill-opacity="1" d=" M-124.28199768066406,48.459999084472656 C-191.5019989013672,33.95000076293945 -187.8719940185547,20.200000762939453 -175.64199829101562,-22.979999542236328 C-163.56199645996094,-65.62999725341797 -110.36199951171875,-95.16999816894531 11.23799991607666,-79.19999694824219 C132.83799743652344,-63.22999954223633 199.03799438476562,-11.529999732971191 179.23800659179688,43.5 C165.70799255371094,81.0999984741211 120.15799713134766,84.62999725341797 96.65799713134766,83.4000015258789"/><path stroke-linecap="round" stroke-linejoin="round" fill-opacity="0" stroke="rgb(201,87,133)" stroke-opacity="1" stroke-width="6" d=" M-124.28199768066406,48.459999084472656 C-191.5019989013672,33.95000076293945 -187.8719940185547,20.200000762939453 -175.64199829101562,-22.979999542236328 C-163.56199645996094,-65.62999725341797 -110.36199951171875,-95.16999816894531 11.23799991607666,-79.19999694824219 C132.83799743652344,-63.22999954223633 199.03799438476562,-11.529999732971191 179.23800659179688,43.5 C165.70799255371094,81.0999984741211 120.15799713134766,84.62999725341797 96.65799713134766,83.4000015258789"/></g><g opacity="1" transform="matrix(1,0,0,1,242.2530059814453,180.58799743652344)"><path fill="rgb(255,255,255)" fill-opacity="1" d=" M62.67499923706055,-48.42100143432617 C-21.024999618530273,-71.84100341796875 -140.68499755859375,-73.41100311279297 -148.375,-14.380999565124512 C-153.27499389648438,23.179000854492188 -102.96600341796875,35.38800048828125 -84.32499694824219,39.8489990234375 C-46.04399871826172,49.0099983215332 37.448001861572266,63.558998107910156 88.17500305175781,63.558998107910156 C104.06500244140625,63.558998107910156 149.19500732421875,56.39899826049805 148.7050018310547,13.229000091552734 C148.44500732421875,-9.630999565124512 116.16500091552734,-33.46099853515625 62.67499923706055,-48.42100143432617z"/></g></g><g transform="matrix(1.0299999713897705,0,0,1.0299999713897705,256.5198974609375,315.523193359375)" opacity="1" style="display: block;"><g opacity="1" transform="matrix(1,0,0,1,0,0)"><path fill="rgb(255,255,255)" fill-opacity="1" d=" M9.291999816894531,-81.7969970703125 C-77.78399658203125,-89.68800354003906 -103.99700164794922,-66.11699676513672 -85.16699981689453,-62.5369987487793 C-81.40699768066406,-61.82699966430664 -78.88200378417969,-58.854000091552734 -80.18699645996094,-52.08700180053711 C-87.4469985961914,-14.256999969482422 -90.49700164794922,52.612998962402344 -89.25700378417969,69.16300201416016 C-89.25700378417969,69.16300201416016 -66.83699798583984,75.572998046875 -41.016998291015625,79.33300018310547 C-13.04699993133545,83.40299987792969 15.512999534606934,83.40299987792969 27.39299964904785,83.40299987792969 C53.222999572753906,83.40299987792969 71.3030014038086,80.02300262451172 71.3030014038086,80.02300262451172 C73.35299682617188,40.643001556396484 75.19300079345703,-3.8469998836517334 79.23300170898438,-26.87700080871582 C80.2490005493164,-34.332000732421875 82.59600067138672,-38.766998291015625 87.33300018310547,-38.82699966430664 C103.22200012207031,-39.02799987792969 64.60800170898438,-76.78399658203125 9.291999816894531,-81.7969970703125z"/></g></g><g style="display: none;"><g><path/></g><g><path/><path stroke-linecap="round" stroke-linejoin="round" fill-opacity="0"/></g><g><path/><path stroke-linecap="round" stroke-linejoin="round" fill-opacity="0"/></g><g><path/><path stroke-linecap="round" stroke-linejoin="round" fill-opacity="0"/></g><g><path/><path stroke-linecap="round" stroke-linejoin="round" fill-opacity="0"/></g><g><path/><path stroke-linecap="round" stroke-linejoin="round" fill-opacity="0"/></g><g><path/><path stroke-linecap="round" stroke-linejoin="round" fill-opacity="0"/></g><g><path/><path stroke-linecap="round" stroke-linejoin="round" fill-opacity="0"/></g><g><path stroke-linecap="round" stroke-linejoin="round" fill-opacity="0"/></g></g><g transform="matrix(1.0299999713897705,0,0,1.0299999713897705,250.24205017089844,287.739990234375)" opacity="1" style="display: block;"><g opacity="1" transform="matrix(1,0,0,1,49.5,5.5)"><path fill="rgb(255,255,255)" fill-opacity="1" d=" M29,-104.49500274658203 C11.968999862670898,-125.96700286865234 -43.797000885009766,-123.58599853515625 -65.88300323486328,-135.24200439453125 C-87.96900177001953,-146.8979949951172 -110.28500366210938,-112.49299621582031 -112.1259994506836,-105.74500274658203 C-112.1259994506836,-105.74500274658203 -114,-80.5 -100.1259994506836,-59.77299880981445 C-92.61799621582031,-48.55699920654297 -36.84700012207031,-34.07400131225586 -36.84700012207031,-34.07400131225586 C20.20800018310547,-16.283000946044922 46.03099822998047,-83.02300262451172 29,-104.49500274658203z M-39.05099868774414,-58.34199905395508 C-65.48200225830078,-57.49599838256836 -80.25,-81.5 -84.33599853515625,-101.04299926757812 C-67.5,-58 -41.3849983215332,-63.45100021362305 -41.3849983215332,-63.45100021362305 C-18,-61.25 -2.25,-75.5 6.1519999504089355,-80.2699966430664 C11.371000289916992,-78.8740005493164 -18.5,-59 -39.05099868774414,-58.34199905395508z"/></g></g><g style="display: none;"><g><path stroke-linecap="round" stroke-linejoin="round" fill-opacity="0"/></g></g><g transform="matrix(1.0299999713897705,0,0,1.0299999713897705,259.77777099609375,210.42201232910156)" opacity="1" style="display: block;"><g opacity="1" transform="matrix(1,0,0,1,0,0)"><path stroke-linecap="round" stroke-linejoin="round" fill-opacity="0" stroke="rgb(112,33,72)" stroke-opacity="1" stroke-width="6" d=" M-44.1609992980957,-19.170000076293945 C-44.1609992980957,-19.170000076293945 -39.45899963378906,13.833999633789062 -4.501999855041504,18.530000686645508 C30.454999923706055,23.22599983215332 44.1609992980957,0.5450000166893005 44.1609992980957,0.5450000166893005"/></g></g><g transform="matrix(1.0299999713897705,0,0,1.0299999713897705,6.132049560546875,24.05999755859375)" opacity="1" style="display: block;"><g opacity="1" transform="matrix(1,0,0,1,0,0)"><g opacity="1" transform="matrix(1,0,0,1,404.83099365234375,193.51600646972656)"><path fill="rgb(255,255,255)" fill-opacity="1" d=" M-67.9209976196289,5.271999835968018 C-65.00900268554688,42.784000396728516 -32.2400016784668,70.83300018310547 5.271999835968018,67.9209976196289 C42.784000396728516,65.00900268554688 70.83300018310547,32.2400016784668 67.9209976196289,-5.271999835968018 C65.00900268554688,-42.784000396728516 32.2400016784668,-70.83300018310547 -5.271999835968018,-67.9209976196289 C-42.784000396728516,-65.00900268554688 -70.83300018310547,-32.2400016784668 -67.9209976196289,5.271999835968018z"/></g><g opacity="1" transform="matrix(1,0,0,1,106.11699676513672,152.25900268554688)"><path fill="rgb(255,255,255)" fill-opacity="1" d=" M-63.060001373291016,4.894999980926514 C-60.356998443603516,39.72200012207031 -29.93199920654297,65.76300048828125 4.894999980926514,63.060001373291016 C39.72200012207031,60.356998443603516 65.76300048828125,29.93199920654297 63.060001373291016,-4.894999980926514 C60.356998443603516,-39.72200012207031 29.93199920654297,-65.76300048828125 -4.894999980926514,-63.060001373291016 C-39.72200012207031,-60.356998443603516 -65.76300048828125,-29.93199920654297 -63.060001373291016,4.894999980926514z"/></g><g opacity="1" transform="matrix(1,0,0,1,404.83099365234375,193.51600646972656)"><path stroke-linecap="round" stroke-linejoin="round" fill-opacity="0" stroke="rgb(29,29,27)" stroke-opacity="1" stroke-width="6" d=" M-67.9209976196289,5.271999835968018 C-65.00900268554688,42.784000396728516 -32.2400016784668,70.83300018310547 5.271999835968018,67.9209976196289 C42.784000396728516,65.00900268554688 70.83300018310547,32.2400016784668 67.9209976196289,-5.271999835968018 C65.00900268554688,-42.784000396728516 32.2400016784668,-70.83300018310547 -5.271999835968018,-67.9209976196289 C-42.784000396728516,-65.00900268554688 -70.83300018310547,-32.2400016784668 -67.9209976196289,5.271999835968018z"/></g><g opacity="1" transform="matrix(1,0,0,1,106.11699676513672,152.25900268554688)"><path stroke-linecap="round" stroke-linejoin="round" fill-opacity="0" stroke="rgb(29,29,27)" stroke-opacity="1" stroke-width="6" d=" M-63.060001373291016,4.894999980926514 C-60.356998443603516,39.72200012207031 -29.93199920654297,65.76300048828125 4.894999980926514,63.060001373291016 C39.72200012207031,60.356998443603516 65.76300048828125,29.93199920654297 63.060001373291016,-4.894999980926514 C60.356998443603516,-39.72200012207031 29.93199920654297,-65.76300048828125 -4.894999980926514,-63.060001373291016 C-39.72200012207031,-60.356998443603516 -65.76300048828125,-29.93199920654297 -63.060001373291016,4.894999980926514z"/></g></g></g><g transform="matrix(1.0299999713897705,0,0,1.0299999713897705,6.132049560546875,24.05999755859375)" opacity="1" style="display: block;"><g opacity="1" transform="matrix(1,0,0,1,0,0)"><g opacity="1" transform="matrix(1,0,0,1,394.9490051269531,188.91600036621094)"><path fill="rgb(29,29,27)" fill-opacity="1" d=" M-32.652000427246094,2.5339999198913574 C-31.093000411987305,22.61400032043457 -15.211000442504883,37.757999420166016 2.822000026702881,36.358001708984375 C20.854999542236328,34.95800018310547 34.21099853515625,17.54599952697754 32.652000427246094,-2.5339999198913574 C31.093000411987305,-22.61400032043457 15.211000442504883,-37.757999420166016 -2.822000026702881,-36.358001708984375 C-20.854999542236328,-34.95800018310547 -34.21099853515625,-17.54599952697754 -32.652000427246094,2.5339999198913574z"/></g><g opacity="1" transform="matrix(1,0,0,1,111.51899719238281,151.01800537109375)"><path fill="rgb(29,29,27)" fill-opacity="1" d=" M-32.67900085449219,2.5369999408721924 C-31.118999481201172,22.634000778198242 -15.223999977111816,37.78900146484375 2.8239998817443848,36.38800048828125 C20.871999740600586,34.98699951171875 34.23899841308594,17.559999465942383 32.67900085449219,-2.5369999408721924 C31.118999481201172,-22.634000778198242 15.223999977111816,-37.78900146484375 -2.8239998817443848,-36.38800048828125 C-20.871999740600586,-34.98699951171875 -34.23899841308594,-17.559999465942383 -32.67900085449219,2.5369999408721924z"/></g><g opacity="1" transform="matrix(1,0,0,1,416.26800537109375,164.21600341796875)"><path fill="rgb(255,255,255)" fill-opacity="1" d=" M-15.25,1.184000015258789 C-14.595999717712402,9.605999946594238 -7.23799991607666,15.904000282287598 1.184000015258789,15.25 C9.605999946594238,14.595999717712402 15.904000282287598,7.23799991607666 15.25,-1.184000015258789 C14.595999717712402,-9.605999946594238 7.23799991607666,-15.904000282287598 -1.184000015258789,-15.25 C-9.605999946594238,-14.595999717712402 -15.904000282287598,-7.23799991607666 -15.25,1.184000015258789z"/></g><g opacity="1" transform="matrix(1,0,0,1,137.63400268554688,130.19700622558594)"><path fill="rgb(255,255,255)" fill-opacity="1" d=" M-15.262999534606934,1.184999942779541 C-14.609000205993652,9.61400032043457 -7.24399995803833,15.916999816894531 1.184999942779541,15.262999534606934 C9.61400032043457,14.609000205993652 15.916999816894531,7.24399995803833 15.262999534606934,-1.184999942779541 C14.609000205993652,-9.61400032043457 7.24399995803833,-15.916999816894531 -1.184999942779541,-15.262999534606934 C-9.61400032043457,-14.609000205993652 -15.916999816894531,-7.24399995803833 -15.262999534606934,1.184999942779541z"/></g><g opacity="1" transform="matrix(1,0,0,1,110.1510009765625,168.63499450683594)"><path fill="rgb(110,34,73)" fill-opacity="1" d=" M6.2179999351501465,-6.679999828338623 C2.4560000896453857,-5.685999870300293 1.2200000286102295,-5.507999897003174 -5.146999835968018,-8.807000160217285 C-12.723999977111816,-12.732000350952148 -21.54199981689453,0.7400000095367432 -10.199000358581543,6.88100004196167 C-5.066999912261963,9.659000396728516 1.531999945640564,9.97599983215332 6.550000190734863,9.03499984741211 C20.482999801635742,6.421999931335449 16.743000030517578,-9.461000442504883 6.2179999351501465,-6.679999828338623z"/></g><g opacity="1" transform="matrix(1,0,0,1,393.0249938964844,203.74000549316406)"><path fill="rgb(110,34,73)" fill-opacity="1" d=" M-5.244999885559082,-8.130000114440918 C-1.6690000295639038,-6.5970001220703125 -0.47200000286102295,-6.241000175476074 6.309000015258789,-8.574000358581543 C14.378000259399414,-11.35099983215332 21.132999420166016,3.265000104904175 9.015000343322754,7.683000087738037 C3.5329999923706055,9.682000160217285 -3.0420000553131104,9.031999588012695 -7.86899995803833,7.368000030517578 C-21.270999908447266,2.747999906539917 -15.25100040435791,-12.418999671936035 -5.244999885559082,-8.130000114440918z"/></g></g></g><g style="display: none;"><g><path/><path stroke-linecap="round" stroke-linejoin="round" fill-opacity="0"/></g><g><path/><path stroke-linecap="round" stroke-linejoin="round" fill-opacity="0"/></g><g><path/><path stroke-linecap="round" stroke-linejoin="round" fill-opacity="0"/></g><g><path/><path stroke-linecap="round" stroke-linejoin="round" fill-opacity="0"/></g></g><g transform="matrix(1.0299999713897705,0,0,1.0299999713897705,6.132049560546875,24.05999755859375)" opacity="1" style="display: block;"><g opacity="1" transform="matrix(1,0,0,1,159.0989990234375,77.74400329589844)"><path stroke-linecap="round" stroke-linejoin="round" fill-opacity="0" stroke="rgb(112,33,72)" stroke-opacity="1" stroke-width="6" d=" M-15.390999794006348,8.347999572753906 C-15.390999794006348,8.347999572753906 9.130000114440918,5.738999843597412 15.390999794006348,-8.347999572753906"/></g><g opacity="1" transform="matrix(1,0,0,1,353.2250061035156,97.83100128173828)"><path stroke-linecap="round" stroke-linejoin="round" fill-opacity="0" stroke="rgb(112,33,72)" stroke-opacity="1" stroke-width="6" d=" M-9.61400032043457,-11.73900032043457 C-9.61400032043457,-11.73900032043457 -5.515999794006348,7.565000057220459 9.61400032043457,11.73900032043457"/></g></g><g transform="matrix(0.6645704507827759,0,0,0.6645704507827759,77.8326187133789,137.49884033203125)" opacity="1" style="display: block;"><g opacity="1" transform="matrix(1,0,0,1,196.20899963378906,310.4259948730469)"><path fill="rgb(234,57,91)" fill-opacity="1" d=" M-13.850000381469727,70.447998046875 C-13.850000381469727,70.447998046875 -95.76300048828125,27.143999099731445 -91.09300231933594,-26.072999954223633 C-85.89299774169922,-85.33200073242188 -22.197999954223633,-81.37799835205078 -1.3279999494552612,-37.029998779296875 C-1.3279999494552612,-37.029998779296875 24.672000885009766,-74.39099884033203 64.04000091552734,-58.94300079345703 C97.27999877929688,-45.900001525878906 96.75900268554688,-8.310999870300293 80.30899810791016,12.4399995803833 C71.80799865722656,23.163999557495117 36.87900161743164,61.577999114990234 -13.850000381469727,70.447998046875z"/><path stroke-linecap="round" stroke-linejoin="round" fill-opacity="0" stroke="rgb(140,21,64)" stroke-opacity="1" stroke-width="6" d=" M-13.850000381469727,70.447998046875 C-13.850000381469727,70.447998046875 -95.76300048828125,27.143999099731445 -91.09300231933594,-26.072999954223633 C-85.89299774169922,-85.33200073242188 -22.197999954223633,-81.37799835205078 -1.3279999494552612,-37.029998779296875 C-1.3279999494552612,-37.029998779296875 24.672000885009766,-74.39099884033203 64.04000091552734,-58.94300079345703 C97.27999877929688,-45.900001525878906 96.75900268554688,-8.310999870300293 80.30899810791016,12.4399995803833 C71.80799865722656,23.163999557495117 36.87900161743164,61.577999114990234 -13.850000381469727,70.447998046875z"/></g><g opacity="1" transform="matrix(1,0,0,1,192.31100463867188,279.3479919433594)"><path fill="rgb(234,57,91)" fill-opacity="1" d=" M-4.255000114440918,8.135000228881836 C-4.255000114440918,8.135000228881836 -1.3200000524520874,-1.0290000438690186 4.255000114440918,-8.135000228881836"/><path stroke-linecap="round" stroke-linejoin="round" fill-opacity="0" stroke="rgb(140,21,64)" stroke-opacity="1" stroke-width="6" d=" M-4.255000114440918,8.135000228881836 C-4.255000114440918,8.135000228881836 -1.3200000524520874,-1.0290000438690186 4.255000114440918,-8.135000228881836"/></g><g opacity="1" transform="matrix(1,0,0,1,165.31100463867188,264.35400390625)"><path fill="rgb(214,43,84)" fill-opacity="1" d=" M-26.266000747680664,-20.76300048828125 C-26.266000747680664,-20.76300048828125 14.722999572753906,-11.567000389099121 20.13599967956543,21.30299949645996 C20.13599967956543,21.30299949645996 22.482999801635742,13.998000144958496 26.266000747680664,9.17199993133545 C26.266000747680664,9.17199993133545 11.104000091552734,-26.04599952697754 -26.266000747680664,-20.76300048828125z"/></g><g opacity="1" transform="matrix(1,0,0,1,206.13099670410156,317.0920104980469)"><path fill="rgb(214,43,84)" fill-opacity="1" d=" M56.79499816894531,-61.17399978637695 C56.79499816894531,-61.17399978637695 87.83799743652344,-46.82600021362305 75.83799743652344,-10.826000213623047 C63.8380012512207,25.173999786376953 -1.1180000305175781,59.347999572753906 -23.0310001373291,61.17399978637695 C-23.0310001373291,61.17399978637695 -63.72600173950195,37.21699905395508 -78.59600067138672,16.716999053955078 C-78.59600067138672,16.716999053955078 -30.073999404907227,49.630001068115234 -20.944000244140625,47.57600021362305 C-11.814000129699707,45.52199935913086 55.750999450683594,21.283000946044922 66.18599700927734,-12.456999778747559 C76.62100219726562,-46.196998596191406 56.79499816894531,-61.17399978637695 56.79499816894531,-61.17399978637695z"/></g><g opacity="1" transform="matrix(1,0,0,1,226.36300659179688,268.7250061035156)"><path fill="rgb(255,255,255)" fill-opacity="1" d=" M-0.515999972820282,0.2840000092983246 C-8.991999626159668,4.581999778747559 -12.657999992370605,13.553000450134277 -16.275999069213867,8.87399959564209 C-18.163000106811523,6.433000087738037 -12.491000175476074,-2.7950000762939453 -4.014999866485596,-7.0929999351501465 C4.460999965667725,-11.390999794006348 15.303000450134277,-10.788000106811523 16.39900016784668,-7.890999794006348 C18.354999542236328,-2.7200000286102295 7.960000038146973,-4.013999938964844 -0.515999972820282,0.2840000092983246z"/></g><g opacity="1" transform="matrix(1,0,0,1,135.6230010986328,257.2869873046875)"><path fill="rgb(255,255,255)" fill-opacity="1" d=" M0.4449999928474426,1.5399999618530273 C-6.11899995803833,4.868000030517578 -9.803000450134277,11.458999633789062 -13.196999549865723,6.666999816894531 C-14.967000007629395,4.166999816894531 -9.66100025177002,-2.48799991607666 -3.0969998836517334,-5.815999984741211 C3.4670000076293945,-9.144000053405762 12.053000450134277,-9.109000205993652 13.215999603271484,-6.245999813079834 C15.291999816894531,-1.1360000371932983 7.008999824523926,-1.7879999876022339 0.4449999928474426,1.5399999618530273z"/></g></g><g transform="matrix(0.4319167733192444,0,0,0.4319167733192444,226.05043029785156,357.48162841796875)" opacity="1" style="display: block;"><g opacity="1" transform="matrix(1,0,0,1,0,0)"><path fill="rgb(249,255,136)" fill-opacity="1" d=" M0.9779999852180481,-20.589000701904297 C0.9779999852180481,-20.589000701904297 -1.1080000400543213,0.5249999761581421 -13.303999900817871,0.9660000205039978 C-13.303999900817871,0.9660000205039978 0,2.9059998989105225 0.7559999823570251,20.589000701904297 C0.7559999823570251,20.589000701904297 3.3259999752044678,1.8040000200271606 13.303999900817871,0.9660000205039978 C13.303999900817871,0.9660000205039978 1.36899995803833,-2.359999895095825 0.9779999852180481,-20.589000701904297z"/><path stroke-linecap="round" stroke-linejoin="round" fill-opacity="0" stroke="rgb(234,158,47)" stroke-opacity="1" stroke-width="5" d=" M0.9779999852180481,-20.589000701904297 C0.9779999852180481,-20.589000701904297 -1.1080000400543213,0.5249999761581421 -13.303999900817871,0.9660000205039978 C-13.303999900817871,0.9660000205039978 0,2.9059998989105225 0.7559999823570251,20.589000701904297 C0.7559999823570251,20.589000701904297 3.3259999752044678,1.8040000200271606 13.303999900817871,0.9660000205039978 C13.303999900817871,0.9660000205039978 1.36899995803833,-2.359999895095825 0.9779999852180481,-20.589000701904297z"/></g></g><g transform="matrix(0.18171727657318115,0,0,0.18171727657318115,185.6777801513672,327.3380432128906)" opacity="1" style="display: block;"><g opacity="1" transform="matrix(1,0,0,1,0,0)"><path fill="rgb(249,255,136)" fill-opacity="1" d=" M0.8019999861717224,-16.881999969482422 C0.8019999861717224,-16.881999969482422 -0.9089999794960022,0.4309999942779541 -10.907999992370605,0.7919999957084656 C-10.907999992370605,0.7919999957084656 0,2.384000062942505 0.6200000047683716,16.881999969482422 C0.6200000047683716,16.881999969482422 2.7269999980926514,1.4789999723434448 10.907999992370605,0.7919999957084656 C10.907999992370605,0.7919999957084656 1.1230000257492065,-1.934999942779541 0.8019999861717224,-16.881999969482422z"/><path stroke-linecap="round" stroke-linejoin="round" fill-opacity="0" stroke="rgb(234,158,47)" stroke-opacity="1" stroke-width="4.1" d=" M0.8019999861717224,-16.881999969482422 C0.8019999861717224,-16.881999969482422 -0.9089999794960022,0.4309999942779541 -10.907999992370605,0.7919999957084656 C-10.907999992370605,0.7919999957084656 0,2.384000062942505 0.6200000047683716,16.881999969482422 C0.6200000047683716,16.881999969482422 2.7269999980926514,1.4789999723434448 10.907999992370605,0.7919999957084656 C10.907999992370605,0.7919999957084656 1.1230000257492065,-1.934999942779541 0.8019999861717224,-16.881999969482422z"/></g></g><g transform="matrix(1.0299999713897705,0,0,1.0299999713897705,6.132049560546875,24.05999755859375)" opacity="1" style="display: block;"><g opacity="1" transform="matrix(1,0,0,1,283.1600036621094,312.468994140625)"><path fill="rgb(255,202,230)" fill-opacity="1" d=" M36.902000427246094,-32.55099868774414 C36.902000427246094,-32.55099868774414 -33.597999572753906,-19.80699920654297 -36.67499923706055,-0.9660000205039978 C-39.75199890136719,17.875 -11.354999542236328,40.439998626708984 32.88600158691406,29.83099937438965"/></g><g opacity="1" transform="matrix(1,0,0,1,279.70098876953125,320.8349914550781)"><path fill="rgb(251,168,212)" fill-opacity="1" d=" M-15.04800033569336,-21.579999923706055 C-15.04800033569336,-21.579999923706055 -22.8439998626709,-15.133000373840332 -22.447999954223633,-6.626999855041504 C-22.12700080871582,0.2630000114440918 -16.020000457763672,8.531000137329102 -1.3890000581741333,13.354999542236328 C-1.3890000581741333,13.354999542236328 22.57200050354004,20.601999282836914 30.639999389648438,19.58099937438965 C30.639999389648438,19.58099937438965 -3.25,28.933000564575195 -24.53700065612793,7.181000232696533 C-24.53700065612793,7.181000232696533 -33.62200164794922,-1.687000036239624 -29.624000549316406,-10.409000396728516 C-29.624000549316406,-10.409000396728516 -27.17799949645996,-17.53700065612793 -15.04800033569336,-21.579999923706055z"/></g><g opacity="1" transform="matrix(1,0,0,1,287.62701416015625,298.1759948730469)"><path fill="rgb(255,255,255)" fill-opacity="1" d=" M0.5070000290870667,2.6440000534057617 C-4.869999885559082,4.284999847412109 -9.605999946594238,4.380000114440918 -10.071000099182129,2.8559999465942383 C-10.53600025177002,1.3320000171661377 -6.553999900817871,-1.2339999675750732 -1.1770000457763672,-2.875 C4.199999809265137,-4.515999794006348 9.611000061035156,-4.130000114440918 10.076000213623047,-2.6059999465942383 C10.541000366210938,-1.0820000171661377 5.883999824523926,1.003000020980835 0.5070000290870667,2.6440000534057617z"/></g><g opacity="1" transform="matrix(1,0,0,1,303.6929931640625,294.79998779296875)"><path fill="rgb(255,255,255)" fill-opacity="1" d=" M-0.23100000619888306,-2.427000045776367 C-1.906000018119812,-2.2669999599456787 -3.1610000133514404,-1.0520000457763672 -3.0329999923706055,0.289000004529953 C-2.9049999713897705,1.6299999952316284 -1.444000005722046,2.5869998931884766 0.23100000619888306,2.427000045776367 C1.906000018119812,2.2669999599456787 3.1610000133514404,1.0520000457763672 3.0329999923706055,-0.289000004529953 C2.9049999713897705,-1.6299999952316284 1.444000005722046,-2.5869998931884766 -0.23100000619888306,-2.427000045776367z"/></g><g opacity="1" transform="matrix(1,0,0,1,283.1600036621094,312.468994140625)"><path stroke-linecap="round" stroke-linejoin="round" fill-opacity="0" stroke="rgb(201,87,133)" stroke-opacity="1" stroke-width="6" d=" M36.902000427246094,-32.55099868774414 C36.902000427246094,-32.55099868774414 -33.597999572753906,-19.80699920654297 -36.67499923706055,-0.9660000205039978 C-39.75199890136719,17.875 -11.354999542236328,40.439998626708984 32.88600158691406,29.83099937438965"/></g></g><g transform="matrix(1.0299999713897705,0,0,1.0299999713897705,17.639551162719727,24.05999755859375)" opacity="1" style="display: block;"><g opacity="1" transform="matrix(1,0,0,1,115.31700134277344,293.9630126953125)"><path fill="rgb(255,202,230)" fill-opacity="1" d=" M-6.826000213623047,-35.696998596191406 C-6.826000213623047,-35.696998596191406 -10.869999885559082,-25.784000396728516 1.9129999876022339,-17.95800018310547 C14.696000099182129,-10.131999969482422 35.69599914550781,10.086000442504883 27.086999893188477,22.738000869750977 C17.88800048828125,36.25699996948242 -1.0870000123977661,39.172000885009766 -14.652000427246094,31.60700035095215 C-28.216999053955078,24.04199981689453 -42.042999267578125,2.128999948501587 -6.826000213623047,-35.696998596191406z"/><path stroke-linecap="round" stroke-linejoin="round" fill-opacity="0" stroke="rgb(201,87,133)" stroke-opacity="1" stroke-width="6" d=" M-6.826000213623047,-35.696998596191406 C-6.826000213623047,-35.696998596191406 -10.869999885559082,-25.784000396728516 1.9129999876022339,-17.95800018310547 C14.696000099182129,-10.131999969482422 35.69599914550781,10.086000442504883 27.086999893188477,22.738000869750977 C17.88800048828125,36.25699996948242 -1.0870000123977661,39.172000885009766 -14.652000427246094,31.60700035095215 C-28.216999053955078,24.04199981689453 -42.042999267578125,2.128999948501587 -6.826000213623047,-35.696998596191406z"/></g><g opacity="1" transform="matrix(1,0,0,1,114.14700317382812,296.5119934082031)"><path fill="rgb(251,168,212)" fill-opacity="1" d=" M-8.753999710083008,-30.176000595092773 C-8.753999710083008,-30.176000595092773 -30.17799949645996,11.12600040435791 -2.003999948501587,20.679000854492188 C-2.003999948501587,20.679000854492188 13.64799976348877,26.319000244140625 25.386999130249023,18.884000778198242 C25.386999130249023,18.884000778198242 15.697999954223633,34.7599983215332 -6.473999977111816,28.86199951171875 C-6.473999977111816,28.86199951171875 -47.465999603271484,16.499000549316406 -8.753999710083008,-30.176000595092773z"/></g></g></g></g></svg>